<svg width="343" height="634" viewBox="0 0 343 634" fill="none" xmlns="http://www.w3.org/2000/svg">
<circle r="81.8216" transform="matrix(-0.079085 -0.996868 -0.996868 0.079085 194.933 352.435)" fill="url(#paint0_radial)"/>
<circle r="81.8216" transform="matrix(-0.079085 -0.996868 -0.996868 0.079085 204.976 201.494)" fill="url(#paint1_radial)"/>
<ellipse rx="121.735" ry="120.737" transform="matrix(-0.079085 -0.996868 -0.996868 0.079085 155.248 369.596)" fill="url(#paint2_radial)"/>
<circle r="121.735" transform="matrix(-0.079085 -0.996868 -0.996868 0.079085 185.371 130.981)" fill="url(#paint3_radial)"/>
<circle r="120.737" transform="matrix(-0.079085 -0.996868 -0.996868 0.079085 164.741 337.813)" fill="url(#paint4_radial)"/>
<circle r="121.735" transform="matrix(-0.079085 -0.996868 -0.996868 0.079085 200.797 502.113)" fill="url(#paint5_radial)"/>
<circle r="121.735" transform="matrix(-0.079085 -0.996868 -0.996868 0.079085 130.98 429.577)" fill="url(#paint6_radial)"/>
<ellipse rx="121.735" ry="120.737" transform="matrix(-0.079085 -0.996868 -0.996868 0.079085 212.44 282.98)" fill="url(#paint7_radial)"/>
<circle r="103.774" transform="matrix(-0.079085 -0.996868 -0.996868 0.079085 195.782 262.281)" fill="url(#paint8_radial)"/>
<ellipse rx="103.774" ry="102.776" transform="matrix(-0.079085 -0.996868 -0.996868 0.079085 184.491 435.342)" fill="url(#paint9_radial)"/>
<ellipse rx="81.8216" ry="80.8237" transform="matrix(-0.079085 -0.996868 -0.996868 0.079085 156.162 431.583)" fill="url(#paint10_radial)"/>
<ellipse rx="81.8216" ry="80.8237" transform="matrix(-0.079085 -0.996868 -0.996868 0.079085 127.525 423.846)" fill="url(#paint11_radial)"/>
<circle r="81.8216" transform="matrix(-0.079085 -0.996868 -0.996868 0.079085 143.933 466.587)" fill="url(#paint12_radial)"/>
<defs>
<radialGradient id="paint0_radial" cx="0" cy="0" r="1" gradientUnits="userSpaceOnUse" gradientTransform="translate(81.8216 81.8216) rotate(90) scale(81.8216)">
<stop stop-color="#F68A6A"/>
<stop offset="1" stop-color="white" stop-opacity="0"/>
</radialGradient>
<radialGradient id="paint1_radial" cx="0" cy="0" r="1" gradientUnits="userSpaceOnUse" gradientTransform="translate(81.8216 81.8216) rotate(90) scale(81.8216)">
<stop stop-color="#B64022"/>
<stop offset="1" stop-color="white" stop-opacity="0"/>
</radialGradient>
<radialGradient id="paint2_radial" cx="0" cy="0" r="1" gradientUnits="userSpaceOnUse" gradientTransform="translate(121.735 120.737) rotate(90) scale(120.737 121.735)">
<stop stop-color="#C95943"/>
<stop offset="1" stop-color="white" stop-opacity="0"/>
</radialGradient>
<radialGradient id="paint3_radial" cx="0" cy="0" r="1" gradientUnits="userSpaceOnUse" gradientTransform="translate(121.735 121.735) rotate(90) scale(121.735)">
<stop stop-color="#F68A6A"/>
<stop offset="1" stop-color="white" stop-opacity="0"/>
</radialGradient>
<radialGradient id="paint4_radial" cx="0" cy="0" r="1" gradientUnits="userSpaceOnUse" gradientTransform="translate(120.737 120.737) rotate(90) scale(120.737)">
<stop offset="0.648958" stop-color="#F68A6A"/>
<stop offset="1" stop-color="white" stop-opacity="0"/>
</radialGradient>
<radialGradient id="paint5_radial" cx="0" cy="0" r="1" gradientUnits="userSpaceOnUse" gradientTransform="translate(121.735 121.735) rotate(90) scale(121.735)">
<stop stop-color="#C5512C"/>
<stop offset="1" stop-color="white" stop-opacity="0"/>
</radialGradient>
<radialGradient id="paint6_radial" cx="0" cy="0" r="1" gradientUnits="userSpaceOnUse" gradientTransform="translate(121.735 121.735) rotate(90) scale(121.735)">
<stop stop-color="#C5512C"/>
<stop offset="1" stop-color="white" stop-opacity="0"/>
</radialGradient>
<radialGradient id="paint7_radial" cx="0" cy="0" r="1" gradientUnits="userSpaceOnUse" gradientTransform="translate(121.735 120.737) rotate(90) scale(120.737 121.735)">
<stop stop-color="#962B1A"/>
<stop offset="1" stop-color="white" stop-opacity="0"/>
</radialGradient>
<radialGradient id="paint8_radial" cx="0" cy="0" r="1" gradientUnits="userSpaceOnUse" gradientTransform="translate(103.774 103.774) rotate(90) scale(103.774)">
<stop stop-color="#962B1A"/>
<stop offset="1" stop-color="white" stop-opacity="0"/>
</radialGradient>
<radialGradient id="paint9_radial" cx="0" cy="0" r="1" gradientUnits="userSpaceOnUse" gradientTransform="translate(103.774 102.776) rotate(90) scale(102.776 103.774)">
<stop offset="0.430208" stop-color="#962B1A"/>
<stop offset="1" stop-color="white" stop-opacity="0"/>
</radialGradient>
<radialGradient id="paint10_radial" cx="0" cy="0" r="1" gradientUnits="userSpaceOnUse" gradientTransform="translate(81.8216 80.8237) rotate(90) scale(80.8237 81.8216)">
<stop stop-color="#962B1A"/>
<stop offset="1" stop-color="white" stop-opacity="0"/>
</radialGradient>
<radialGradient id="paint11_radial" cx="0" cy="0" r="1" gradientUnits="userSpaceOnUse" gradientTransform="translate(81.8216 80.8237) rotate(90) scale(80.8237 81.8216)">
<stop stop-color="#962B1A"/>
<stop offset="1" stop-color="white" stop-opacity="0"/>
</radialGradient>
<radialGradient id="paint12_radial" cx="0" cy="0" r="1" gradientUnits="userSpaceOnUse" gradientTransform="translate(81.8216 81.8216) rotate(90) scale(81.8216)">
<stop stop-color="#962B1A"/>
<stop offset="1" stop-color="white" stop-opacity="0"/>
</radialGradient>
</defs>
</svg>
