<svg width="1280" height="599" viewBox="0 0 1280 599" fill="none" xmlns="http://www.w3.org/2000/svg">
<ellipse rx="179" ry="178.5" transform="matrix(1 0 0 -1 298 178.5)" fill="url(#paint0_radial)"/>
<ellipse rx="179" ry="178.5" transform="matrix(1 0 0 -1 386 420.5)" fill="url(#paint1_radial)"/>
<ellipse rx="100" ry="99.5" transform="matrix(1 0 0 -1 429 235.5)" fill="url(#paint2_radial)"/>
<ellipse rx="100" ry="99.5" transform="matrix(1 0 0 -1 437 334.5)" fill="url(#paint3_radial)"/>
<ellipse rx="100" ry="99.5" transform="matrix(1 0 0 -1 596 400.5)" fill="url(#paint4_radial)"/>
<ellipse rx="142.5" ry="142" transform="matrix(1 0 0 -1 579.5 377)" fill="url(#paint5_radial)"/>
<ellipse rx="100" ry="99.5" transform="matrix(1 0 0 -1 714 283.5)" fill="url(#paint6_radial)"/>
<ellipse rx="100" ry="99.5" transform="matrix(1 0 0 -1 537 257.5)" fill="url(#paint7_radial)"/>
<ellipse rx="100" ry="99.5" transform="matrix(1 0 0 -1 714 420.5)" fill="url(#paint8_radial)"/>
<ellipse rx="142.5" ry="142" transform="matrix(1 0 0 -1 779.5 314)" fill="url(#paint9_radial)"/>
<ellipse rx="100" ry="99.5" transform="matrix(1 0 0 -1 942 322.5)" fill="url(#paint10_radial)"/>
<ellipse rx="130.5" ry="130" transform="matrix(1 0 0 -1 1035.5 294)" fill="url(#paint11_radial)"/>
<ellipse cx="993" cy="245.5" rx="179" ry="178.5" fill="url(#paint12_radial)"/>
<ellipse cx="863" cy="223.5" rx="179" ry="178.5" fill="url(#paint13_radial)"/>
<ellipse cx="1101" cy="255.5" rx="179" ry="178.5" fill="url(#paint14_radial)"/>
<ellipse cx="417" cy="255.5" rx="179" ry="178.5" fill="url(#paint15_radial)"/>
<ellipse cx="179" cy="198.5" rx="179" ry="178.5" fill="url(#paint16_radial)"/>
<ellipse cx="302" cy="241.5" rx="179" ry="178.5" fill="url(#paint17_radial)"/>
<defs>
<radialGradient id="paint0_radial" cx="0" cy="0" r="1" gradientUnits="userSpaceOnUse" gradientTransform="translate(179 178.5) rotate(90) scale(178.5 179)">
<stop stop-color="#C4FFD8"/>
<stop offset="1" stop-color="white" stop-opacity="0"/>
</radialGradient>
<radialGradient id="paint1_radial" cx="0" cy="0" r="1" gradientUnits="userSpaceOnUse" gradientTransform="translate(179 178.5) rotate(90) scale(178.5 179)">
<stop stop-color="#5D6EC9"/>
<stop offset="1" stop-color="white" stop-opacity="0"/>
</radialGradient>
<radialGradient id="paint2_radial" cx="0" cy="0" r="1" gradientUnits="userSpaceOnUse" gradientTransform="translate(100 99.5) rotate(90) scale(99.5 100)">
<stop stop-color="#FFE2B6"/>
<stop offset="1" stop-color="white" stop-opacity="0"/>
</radialGradient>
<radialGradient id="paint3_radial" cx="0" cy="0" r="1" gradientUnits="userSpaceOnUse" gradientTransform="translate(100 99.5) rotate(90) scale(99.5 100)">
<stop stop-color="#E2CBA9"/>
<stop offset="1" stop-color="white" stop-opacity="0"/>
</radialGradient>
<radialGradient id="paint4_radial" cx="0" cy="0" r="1" gradientUnits="userSpaceOnUse" gradientTransform="translate(100 99.5) rotate(90) scale(99.5 100)">
<stop stop-color="#5D6EC9"/>
<stop offset="1" stop-color="white" stop-opacity="0"/>
</radialGradient>
<radialGradient id="paint5_radial" cx="0" cy="0" r="1" gradientUnits="userSpaceOnUse" gradientTransform="translate(142.5 142) rotate(90) scale(142 142.5)">
<stop stop-color="#6BBD9B"/>
<stop offset="1" stop-color="white" stop-opacity="0"/>
</radialGradient>
<radialGradient id="paint6_radial" cx="0" cy="0" r="1" gradientUnits="userSpaceOnUse" gradientTransform="translate(100 99.5) rotate(90) scale(99.5 100)">
<stop stop-color="#5D6EC9"/>
<stop offset="1" stop-color="white" stop-opacity="0"/>
</radialGradient>
<radialGradient id="paint7_radial" cx="0" cy="0" r="1" gradientUnits="userSpaceOnUse" gradientTransform="translate(100 99.5) rotate(90) scale(99.5 100)">
<stop stop-color="#70EBC6"/>
<stop offset="1" stop-color="white" stop-opacity="0"/>
</radialGradient>
<radialGradient id="paint8_radial" cx="0" cy="0" r="1" gradientUnits="userSpaceOnUse" gradientTransform="translate(100 99.5) rotate(90) scale(99.5 100)">
<stop stop-color="#5D6EC9"/>
<stop offset="1" stop-color="white" stop-opacity="0"/>
</radialGradient>
<radialGradient id="paint9_radial" cx="0" cy="0" r="1" gradientUnits="userSpaceOnUse" gradientTransform="translate(142.5 142) rotate(90) scale(142 142.5)">
<stop stop-color="#96EFCA"/>
<stop offset="1" stop-color="white" stop-opacity="0"/>
</radialGradient>
<radialGradient id="paint10_radial" cx="0" cy="0" r="1" gradientUnits="userSpaceOnUse" gradientTransform="translate(100 99.5) rotate(90) scale(99.5 100)">
<stop stop-color="#EAA339"/>
<stop offset="1" stop-color="white" stop-opacity="0"/>
</radialGradient>
<radialGradient id="paint11_radial" cx="0" cy="0" r="1" gradientUnits="userSpaceOnUse" gradientTransform="translate(130.5 130) rotate(90) scale(130 130.5)">
<stop stop-color="#67FFBF"/>
<stop offset="1" stop-color="white" stop-opacity="0"/>
</radialGradient>
<radialGradient id="paint12_radial" cx="0" cy="0" r="1" gradientUnits="userSpaceOnUse" gradientTransform="translate(993 245.5) rotate(90) scale(178.5 179)">
<stop stop-color="#06A4D2"/>
<stop offset="1" stop-color="white" stop-opacity="0"/>
</radialGradient>
<radialGradient id="paint13_radial" cx="0" cy="0" r="1" gradientUnits="userSpaceOnUse" gradientTransform="translate(863 223.5) rotate(90) scale(178.5 179)">
<stop stop-color="#A1E4F8"/>
<stop offset="1" stop-color="white" stop-opacity="0"/>
</radialGradient>
<radialGradient id="paint14_radial" cx="0" cy="0" r="1" gradientUnits="userSpaceOnUse" gradientTransform="translate(1101 255.5) rotate(90) scale(178.5 179)">
<stop stop-color="#A1E4F8"/>
<stop offset="1" stop-color="white" stop-opacity="0"/>
</radialGradient>
<radialGradient id="paint15_radial" cx="0" cy="0" r="1" gradientUnits="userSpaceOnUse" gradientTransform="translate(417 255.5) rotate(90) scale(178.5 179)">
<stop stop-color="#A1E4F8"/>
<stop offset="1" stop-color="white" stop-opacity="0"/>
</radialGradient>
<radialGradient id="paint16_radial" cx="0" cy="0" r="1" gradientUnits="userSpaceOnUse" gradientTransform="translate(179 198.5) rotate(90) scale(178.5 179)">
<stop stop-color="#A1E4F8"/>
<stop offset="1" stop-color="white" stop-opacity="0"/>
</radialGradient>
<radialGradient id="paint17_radial" cx="0" cy="0" r="1" gradientUnits="userSpaceOnUse" gradientTransform="translate(302 241.5) rotate(90) scale(178.5 179)">
<stop stop-color="#A1E4F8"/>
<stop offset="1" stop-color="white" stop-opacity="0"/>
</radialGradient>
</defs>
</svg>
