<svg width="320" height="568" viewBox="0 0 320 568" fill="none" xmlns="http://www.w3.org/2000/svg">
<g clip-path="url(#clip0)">
<rect width="320" height="568" fill="white"/>
<circle r="81.8216" transform="matrix(-0.079085 -0.996868 -0.996868 0.079085 179.933 316.435)" fill="url(#paint0_radial)"/>
<circle r="81.8216" transform="matrix(-0.079085 -0.996868 -0.996868 0.079085 189.976 165.494)" fill="url(#paint1_radial)"/>
<ellipse rx="121.735" ry="120.737" transform="matrix(-0.079085 -0.996868 -0.996868 0.079085 140.248 333.596)" fill="url(#paint2_radial)"/>
<circle r="121.735" transform="matrix(-0.079085 -0.996868 -0.996868 0.079085 170.371 94.9806)" fill="url(#paint3_radial)"/>
<circle r="120.737" transform="matrix(-0.079085 -0.996868 -0.996868 0.079085 149.741 301.814)" fill="url(#paint4_radial)"/>
<ellipse rx="121.735" ry="120.737" transform="matrix(-0.079085 -0.996868 -0.996868 0.079085 163.393 473.897)" fill="url(#paint5_radial)"/>
<circle r="121.735" transform="matrix(-0.079085 -0.996868 -0.996868 0.079085 185.797 466.113)" fill="url(#paint6_radial)"/>
<circle r="121.735" transform="matrix(-0.079085 -0.996868 -0.996868 0.079085 115.98 393.577)" fill="url(#paint7_radial)"/>
<ellipse rx="121.735" ry="120.737" transform="matrix(-0.079085 -0.996868 -0.996868 0.079085 197.44 246.981)" fill="url(#paint8_radial)"/>
<circle r="103.774" transform="matrix(-0.079085 -0.996868 -0.996868 0.079085 180.782 226.281)" fill="url(#paint9_radial)"/>
<ellipse rx="103.774" ry="102.776" transform="matrix(-0.079085 -0.996868 -0.996868 0.079085 169.491 399.342)" fill="url(#paint10_radial)"/>
<ellipse rx="46.8977" ry="45.8999" transform="matrix(-0.079085 -0.996868 -0.996868 0.079085 169.551 488.422)" fill="url(#paint11_radial)"/>
<circle r="81.8216" transform="matrix(-0.079085 -0.996868 -0.996868 0.079085 216.269 471.704)" fill="url(#paint12_radial)"/>
<ellipse rx="81.8216" ry="80.8237" transform="matrix(-0.079085 -0.996868 -0.996868 0.079085 141.162 395.583)" fill="url(#paint13_radial)"/>
<ellipse rx="81.8216" ry="80.8237" transform="matrix(-0.079085 -0.996868 -0.996868 0.079085 112.525 387.846)" fill="url(#paint14_radial)"/>
<circle r="81.8216" transform="matrix(-0.079085 -0.996868 -0.996868 0.079085 128.933 430.587)" fill="url(#paint15_radial)"/>
<circle r="81.8216" transform="matrix(-0.079085 -0.996868 -0.996868 0.079085 246.964 505.303)" fill="url(#paint16_radial)"/>
<path d="M18.262 27.9V32.957C18.2447 34.0837 18.5263 34.972 19.107 35.622C19.6877 36.2807 20.4243 36.61 21.317 36.61C22.1317 36.61 22.9463 36.3283 23.761 35.765C22.8337 36.701 21.798 37.169 20.654 37.169C19.744 37.169 18.9727 36.831 18.34 36.155C17.6987 35.479 17.3737 34.5777 17.365 33.451V27.9H18.262ZM23.761 35.765V27.9H24.658V35.193L23.761 35.765ZM34.2063 35.531V27.9H34.7523V37H34.2063L28.0183 29.369V37H27.4593V28.68L27.1083 28.251L27.8623 27.705L34.2063 35.531ZM38.2801 27.9H40.2561C41.6254 27.9 42.7434 28.3203 43.6101 29.161C44.4854 30.0103 44.9231 31.072 44.9231 32.346C44.9231 32.84 44.8364 33.3297 44.6631 33.815C44.4897 34.2917 44.2601 34.7077 43.9741 35.063C43.4974 35.6783 43.0337 36.142 42.5831 36.454C42.9471 36.142 43.3024 35.6697 43.6491 35.037C43.9871 34.413 44.1647 33.6807 44.1821 32.84C44.1821 31.6093 43.7444 30.5693 42.8691 29.72C41.9937 28.8707 40.8627 28.446 39.4761 28.446H38.3841V36.454H42.5831L41.7901 37H37.4871V28.446L38.2801 27.9ZM47.8548 32.398V36.454H52.2878L51.4948 37H46.9578V28.446L47.7508 27.9H52.2228L51.4298 28.446H47.8548V31.852H51.7678L50.9748 32.398H47.8548ZM55.0633 27.9H57.3643C57.8756 27.9 58.3263 28.0127 58.7163 28.238C59.1063 28.4633 59.3793 28.758 59.5353 29.122C59.6999 29.486 59.7823 29.8717 59.7823 30.279C59.7823 30.6777 59.6523 31.0763 59.3923 31.475C59.1323 31.865 58.7726 32.1857 58.3133 32.437C58.6773 32.021 58.8983 31.5747 58.9763 31.098C59.0629 30.6213 59.0239 30.1923 58.8593 29.811C58.7033 29.421 58.4216 29.096 58.0143 28.836C57.6156 28.576 57.1389 28.446 56.5843 28.446H55.1673V37H54.2703V28.446L55.0633 27.9ZM55.9733 32.437H58.3133L61.0043 36.597L60.2243 37.156L57.5333 32.983H55.1803L55.9733 32.437Z" fill="black"/>
<rect x="117" y="434" width="184" height="79" fill="white"/>
<path d="M133.61 455H132.575V444.5H133.61V455ZM139.64 444.5L134.9 449.315L139.97 454.535L139.07 455.165L133.76 449.675L138.77 444.5H139.64ZM146.9 450.095V455H145.94V451.055L145.925 451.07H142.76L143.6 450.485L145.94 450.47C145.9 449.68 145.655 449.06 145.205 448.61C144.755 448.15 144.19 447.92 143.51 447.92C142.85 447.92 142.215 448.12 141.605 448.52C142.335 447.73 143.2 447.335 144.2 447.335C144.95 447.335 145.585 447.58 146.105 448.07C146.615 448.56 146.88 449.235 146.9 450.095ZM141.95 452.525C141.95 453.085 142.15 453.55 142.55 453.92C142.95 454.29 143.48 454.475 144.14 454.475C144.76 454.475 145.36 454.245 145.94 453.785C145.62 454.195 145.23 454.51 144.77 454.73C144.31 454.95 143.84 455.06 143.36 455.06C142.72 455.06 142.185 454.87 141.755 454.49C141.345 454.1 141.14 453.64 141.14 453.11C141.14 452.68 141.285 452.28 141.575 451.91C141.865 451.53 142.26 451.25 142.76 451.07C142.22 451.43 141.95 451.915 141.95 452.525ZM150.597 455H149.637V447.5H150.597V455ZM155.202 450.62V447.5H156.162V455H155.202V451.205H150.612L151.452 450.62H155.202ZM159.972 447.5V454.4H163.527L162.687 455L159.972 454.985V455H159.012V447.5H159.972ZM160.827 450.545H162.867C163.577 450.545 164.102 450.805 164.442 451.325C164.792 451.845 164.877 452.415 164.697 453.035C164.537 453.655 164.147 454.11 163.527 454.4C163.777 454.09 163.927 453.745 163.977 453.365C164.027 452.975 163.987 452.62 163.857 452.3C163.727 451.97 163.502 451.695 163.182 451.475C162.862 451.255 162.482 451.145 162.042 451.145L159.972 451.13L160.827 450.545ZM170.497 447.35C171.477 447.35 172.312 447.7 173.002 448.4C173.692 449.1 174.037 449.945 174.037 450.935C174.037 451.605 173.857 452.23 173.497 452.81C173.147 453.38 172.682 453.815 172.102 454.115C172.842 453.425 173.212 452.565 173.212 451.535C173.212 450.545 172.867 449.7 172.177 449C171.487 448.29 170.647 447.935 169.657 447.935C169.097 447.935 168.557 448.07 168.037 448.34C168.717 447.68 169.537 447.35 170.497 447.35ZM166.927 450.935C166.927 451.925 167.272 452.77 167.962 453.47C168.652 454.17 169.492 454.52 170.482 454.52C171.032 454.52 171.572 454.385 172.102 454.115C171.422 454.785 170.602 455.12 169.642 455.12C168.662 455.12 167.827 454.77 167.137 454.07C166.447 453.37 166.102 452.525 166.102 451.535C166.102 450.845 166.277 450.215 166.627 449.645C166.977 449.075 167.447 448.64 168.037 448.34C167.297 449.03 166.927 449.895 166.927 450.935ZM177.052 455H176.092V447.5H177.052V455ZM181.657 450.62V447.5H182.617V455H181.657V451.205H177.067L177.907 450.62H181.657ZM196.161 450.32L197.946 454.565L197.046 455.21L195.261 450.95H191.061L191.961 450.32H194.991L193.041 445.685L189.516 455H188.811L192.726 444.92L193.611 444.29L196.161 450.32ZM200.68 455H199.72V447.5H200.68V455ZM205.285 450.62V447.5H206.245V455H205.285V451.205H200.695L201.535 450.62H205.285ZM208.41 447.5H214.77L213.93 448.085H211.62V455H210.66V448.085H207.57L208.41 447.5ZM217.13 453.635L221.735 448.01L222.695 447.35V455H221.735V448.835L217.13 454.46L216.17 455.15V447.5H217.13V453.635ZM226.88 447.5H231.305V455H230.345V448.085H226.91C227.01 449.955 226.77 451.44 226.19 452.54C226.49 451.36 226.43 449.875 226.01 448.085L226.31 447.89L226.88 447.5ZM224.99 455.075L224.495 453.995C225.215 453.625 225.78 453.14 226.19 452.54C225.99 453.64 225.59 454.485 224.99 455.075ZM237.836 447.35C238.816 447.35 239.651 447.7 240.341 448.4C241.031 449.1 241.376 449.945 241.376 450.935C241.376 451.605 241.196 452.23 240.836 452.81C240.486 453.38 240.021 453.815 239.441 454.115C240.181 453.425 240.551 452.565 240.551 451.535C240.551 450.545 240.206 449.7 239.516 449C238.826 448.29 237.986 447.935 236.996 447.935C236.436 447.935 235.896 448.07 235.376 448.34C236.056 447.68 236.876 447.35 237.836 447.35ZM234.266 450.935C234.266 451.925 234.611 452.77 235.301 453.47C235.991 454.17 236.831 454.52 237.821 454.52C238.371 454.52 238.911 454.385 239.441 454.115C238.761 454.785 237.941 455.12 236.981 455.12C236.001 455.12 235.166 454.77 234.476 454.07C233.786 453.37 233.441 452.525 233.441 451.535C233.441 450.845 233.616 450.215 233.966 449.645C234.316 449.075 234.786 448.64 235.376 448.34C234.636 449.03 234.266 449.895 234.266 450.935ZM244.301 447.5H249.836V455H248.876V448.085H244.391V455H243.431V448.085L244.301 447.5ZM253.649 447.5V454.4H257.054L256.214 455L253.649 454.985V455H252.689V447.5H253.649ZM259.244 455V447.5H260.204V455H259.244ZM254.504 450.47H256.319C256.849 450.47 257.294 450.63 257.654 450.95C258.014 451.27 258.224 451.655 258.284 452.105C258.344 452.555 258.264 453 258.044 453.44C257.824 453.88 257.494 454.2 257.054 454.4C257.304 454.09 257.454 453.74 257.504 453.35C257.554 452.96 257.509 452.6 257.369 452.27C257.239 451.93 257.004 451.645 256.664 451.415C256.334 451.185 255.944 451.07 255.494 451.07L253.649 451.055L254.504 450.47ZM263.675 447.47L264.575 448.37L263.525 449.03L262.61 448.13L263.675 447.47ZM263.675 453.53L264.575 454.43L263.525 455.09L262.61 454.19L263.675 453.53ZM133.385 470H132.425V462.5H133.385V470ZM137.99 465.62V462.5H138.95V470H137.99V466.205H133.4L134.24 465.62H137.99ZM145.478 462.35C146.458 462.35 147.293 462.7 147.983 463.4C148.673 464.1 149.018 464.945 149.018 465.935C149.018 466.605 148.838 467.23 148.478 467.81C148.128 468.38 147.663 468.815 147.083 469.115C147.823 468.425 148.193 467.565 148.193 466.535C148.193 465.545 147.848 464.7 147.158 464C146.468 463.29 145.628 462.935 144.638 462.935C144.078 462.935 143.538 463.07 143.018 463.34C143.698 462.68 144.518 462.35 145.478 462.35ZM141.908 465.935C141.908 466.925 142.253 467.77 142.943 468.47C143.633 469.17 144.473 469.52 145.463 469.52C146.013 469.52 146.553 469.385 147.083 469.115C146.403 469.785 145.583 470.12 144.623 470.12C143.643 470.12 142.808 469.77 142.118 469.07C141.428 468.37 141.083 467.525 141.083 466.535C141.083 465.845 141.258 465.215 141.608 464.645C141.958 464.075 142.428 463.64 143.018 463.34C142.278 464.03 141.908 464.895 141.908 465.935ZM155.212 465.815C155.702 465.855 156.092 466.045 156.382 466.385C156.682 466.715 156.832 467.11 156.832 467.57C156.832 467.96 156.722 468.32 156.502 468.65C156.292 468.97 155.987 469.22 155.587 469.4C155.907 469.03 156.067 468.625 156.067 468.185C156.067 467.685 155.892 467.265 155.542 466.925C155.202 466.585 154.757 466.415 154.207 466.415L152.032 466.4L152.887 465.815H155.032H155.197C155.467 465.485 155.602 465.12 155.602 464.72C155.602 464.25 155.437 463.86 155.107 463.55C154.777 463.24 154.347 463.085 153.817 463.085H152.032V469.4H155.587L154.747 470L152.032 469.985V470H151.072V463.085L151.942 462.5H154.642C155.172 462.5 155.597 462.655 155.917 462.965C156.237 463.265 156.397 463.645 156.397 464.105C156.397 464.455 156.292 464.785 156.082 465.095C155.872 465.395 155.582 465.635 155.212 465.815ZM159.928 462.5V469.4H163.333L162.493 470L159.928 469.985V470H158.968V462.5H159.928ZM165.523 470V462.5H166.483V470H165.523ZM160.783 465.47H162.598C163.128 465.47 163.573 465.63 163.933 465.95C164.293 466.27 164.503 466.655 164.563 467.105C164.623 467.555 164.543 468 164.323 468.44C164.103 468.88 163.773 469.2 163.333 469.4C163.583 469.09 163.733 468.74 163.783 468.35C163.833 467.96 163.788 467.6 163.648 467.27C163.518 466.93 163.283 466.645 162.943 466.415C162.613 466.185 162.223 466.07 161.773 466.07L159.928 466.055L160.783 465.47ZM175.324 459.35C174.594 460.11 173.759 460.53 172.819 460.61C171.889 460.69 171.104 460.445 170.464 459.875L171.364 459.26C171.844 459.74 172.454 460.005 173.194 460.055C173.904 460.095 174.614 459.86 175.324 459.35ZM170.299 468.635L174.904 463.01L175.864 462.35V470H174.904V463.835L170.299 469.46L169.339 470.15V462.5H170.299V468.635ZM182.673 462.5H189.033L188.193 463.085H185.883V470H184.923V463.085H181.833L182.673 462.5ZM193.309 469.235L196.054 462.5H196.834L192.049 473.75H191.254L192.754 470.48L189.529 462.89L190.369 462.32L193.309 469.235ZM201.999 462.335C202.909 462.335 203.654 462.665 204.234 463.325C204.824 463.995 205.119 464.82 205.119 465.8C205.119 466.52 204.919 467.21 204.519 467.87C204.119 468.53 203.589 469.04 202.929 469.4C203.839 468.59 204.294 467.565 204.294 466.325C204.294 465.405 204.014 464.61 203.454 463.94C202.894 463.28 202.154 462.95 201.234 462.95C200.544 462.95 199.949 463.14 199.449 463.52C200.119 462.73 200.969 462.335 201.999 462.335ZM199.449 462.5V469.4H202.929L202.089 469.985L199.449 470V473.75H198.489V462.5H199.449ZM215.93 465.815C216.42 465.855 216.81 466.045 217.1 466.385C217.4 466.715 217.55 467.11 217.55 467.57C217.55 467.96 217.44 468.32 217.22 468.65C217.01 468.97 216.705 469.22 216.305 469.4C216.625 469.03 216.785 468.625 216.785 468.185C216.785 467.685 216.61 467.265 216.26 466.925C215.92 466.585 215.475 466.415 214.925 466.415L212.75 466.4L213.605 465.815H215.75H215.915C216.185 465.485 216.32 465.12 216.32 464.72C216.32 464.25 216.155 463.86 215.825 463.55C215.495 463.24 215.065 463.085 214.535 463.085H212.75V469.4H216.305L215.465 470L212.75 469.985V470H211.79V463.085L212.66 462.5H215.36C215.89 462.5 216.315 462.655 216.635 462.965C216.955 463.265 217.115 463.645 217.115 464.105C217.115 464.455 217.01 464.785 216.8 465.095C216.59 465.395 216.3 465.635 215.93 465.815ZM228.022 462.35C229.002 462.35 229.837 462.7 230.527 463.4C231.217 464.1 231.562 464.945 231.562 465.935C231.562 466.605 231.382 467.23 231.022 467.81C230.672 468.38 230.207 468.815 229.627 469.115C230.367 468.425 230.737 467.565 230.737 466.535C230.737 465.545 230.392 464.7 229.702 464C229.012 463.29 228.172 462.935 227.182 462.935C226.622 462.935 226.082 463.07 225.562 463.34C226.242 462.68 227.062 462.35 228.022 462.35ZM224.452 465.935C224.452 466.925 224.797 467.77 225.487 468.47C226.177 469.17 227.017 469.52 228.007 469.52C228.557 469.52 229.097 469.385 229.627 469.115C228.947 469.785 228.127 470.12 227.167 470.12C226.187 470.12 225.352 469.77 224.662 469.07C223.972 468.37 223.627 467.525 223.627 466.535C223.627 465.845 223.802 465.215 224.152 464.645C224.502 464.075 224.972 463.64 225.562 463.34C224.822 464.03 224.452 464.895 224.452 465.935ZM239.307 469.415H240.387V471.575L239.487 472.205V470H233.427V471.575L232.527 472.205V469.4L238.347 469.415V463.085H234.882C234.962 466.075 234.437 468.18 233.307 469.4C233.737 468.76 234.012 467.82 234.132 466.58C234.262 465.38 234.227 464.215 234.027 463.085L234.327 462.89L234.882 462.5H239.307V469.415ZM243.351 470H242.391V462.5H243.351V470ZM247.956 465.62V462.5H248.916V470H247.956V466.205H243.366L244.206 465.62H247.956ZM255.444 462.35C256.424 462.35 257.259 462.7 257.949 463.4C258.639 464.1 258.984 464.945 258.984 465.935C258.984 466.605 258.804 467.23 258.444 467.81C258.094 468.38 257.629 468.815 257.049 469.115C257.789 468.425 258.159 467.565 258.159 466.535C258.159 465.545 257.814 464.7 257.124 464C256.434 463.29 255.594 462.935 254.604 462.935C254.044 462.935 253.504 463.07 252.984 463.34C253.664 462.68 254.484 462.35 255.444 462.35ZM251.874 465.935C251.874 466.925 252.219 467.77 252.909 468.47C253.599 469.17 254.439 469.52 255.429 469.52C255.979 469.52 256.519 469.385 257.049 469.115C256.369 469.785 255.549 470.12 254.589 470.12C253.609 470.12 252.774 469.77 252.084 469.07C251.394 468.37 251.049 467.525 251.049 466.535C251.049 465.845 251.224 465.215 251.574 464.645C251.924 464.075 252.394 463.64 252.984 463.34C252.244 464.03 251.874 464.895 251.874 465.935ZM133.385 483.635L137.99 478.01L138.95 477.35V485H137.99V478.835L133.385 484.46L132.425 485.15V477.5H133.385V483.635ZM144.819 480.815C145.309 480.865 145.699 481.05 145.989 481.37C146.279 481.68 146.424 482.05 146.424 482.48C146.424 482.88 146.304 483.25 146.064 483.59C145.824 483.92 145.489 484.175 145.059 484.355C145.439 483.945 145.629 483.51 145.629 483.05C145.629 482.57 145.454 482.175 145.104 481.865C144.764 481.545 144.314 481.385 143.754 481.385H142.704L143.559 480.8H144.579C144.709 480.8 144.789 480.805 144.819 480.815C145.119 480.425 145.269 480.035 145.269 479.645C145.269 479.145 145.054 478.74 144.624 478.43C144.204 478.1 143.679 477.935 143.049 477.935C142.169 477.935 141.434 478.13 140.844 478.52C141.194 478.14 141.649 477.85 142.209 477.65C142.759 477.44 143.289 477.335 143.799 477.335C144.479 477.335 145.029 477.5 145.449 477.83C145.879 478.15 146.094 478.565 146.094 479.075C146.094 479.415 145.984 479.74 145.764 480.05C145.544 480.36 145.229 480.615 144.819 480.815ZM140.799 484.19L141.654 483.59C142.324 484.26 143.079 484.595 143.919 484.595C144.419 484.595 144.799 484.515 145.059 484.355C144.849 484.595 144.554 484.785 144.174 484.925C143.804 485.055 143.424 485.12 143.034 485.12C142.164 485.12 141.419 484.81 140.799 484.19ZM158.659 477.89L157.834 478.46C157.344 478.12 156.804 477.94 156.214 477.92C155.624 477.89 155.039 478.03 154.459 478.34C155.019 477.75 155.714 477.425 156.544 477.365C157.374 477.295 158.079 477.47 158.659 477.89ZM153.319 480.965C153.309 481.945 153.659 482.785 154.369 483.485C155.089 484.175 155.959 484.52 156.979 484.52C157.679 484.52 158.284 484.37 158.794 484.07C158.474 484.39 158.074 484.645 157.594 484.835C157.114 485.025 156.629 485.12 156.139 485.12C155.129 485.12 154.264 484.775 153.544 484.085C152.834 483.375 152.479 482.525 152.479 481.535C152.479 480.865 152.659 480.245 153.019 479.675C153.379 479.095 153.859 478.65 154.459 478.34C154.099 478.64 153.819 479.025 153.619 479.495C153.419 479.955 153.319 480.445 153.319 480.965ZM165.781 480.095V485H164.821V481.055L164.806 481.07H161.641L162.481 480.485L164.821 480.47C164.781 479.68 164.536 479.06 164.086 478.61C163.636 478.15 163.071 477.92 162.391 477.92C161.731 477.92 161.096 478.12 160.486 478.52C161.216 477.73 162.081 477.335 163.081 477.335C163.831 477.335 164.466 477.58 164.986 478.07C165.496 478.56 165.761 479.235 165.781 480.095ZM160.831 482.525C160.831 483.085 161.031 483.55 161.431 483.92C161.831 484.29 162.361 484.475 163.021 484.475C163.641 484.475 164.241 484.245 164.821 483.785C164.501 484.195 164.111 484.51 163.651 484.73C163.191 484.95 162.721 485.06 162.241 485.06C161.601 485.06 161.066 484.87 160.636 484.49C160.226 484.1 160.021 483.64 160.021 483.11C160.021 482.68 160.166 482.28 160.456 481.91C160.746 481.53 161.141 481.25 161.641 481.07C161.101 481.43 160.831 481.915 160.831 482.525ZM176.091 477.35L177.366 484.58L176.466 485.15L175.371 478.94L173.076 484.43H173.046L172.191 484.97L169.746 478.91L168.801 485H168.111L169.341 477.905L170.226 477.35L172.776 483.68L175.191 477.92L176.091 477.35ZM180.582 477.5V484.4H183.987L183.147 485L180.582 484.985V485H179.622V477.5H180.582ZM186.177 485V477.5H187.137V485H186.177ZM181.437 480.47H183.252C183.782 480.47 184.227 480.63 184.587 480.95C184.947 481.27 185.157 481.655 185.217 482.105C185.277 482.555 185.197 483 184.977 483.44C184.757 483.88 184.427 484.2 183.987 484.4C184.237 484.09 184.387 483.74 184.437 483.35C184.487 482.96 184.442 482.6 184.302 482.27C184.172 481.93 183.937 481.645 183.597 481.415C183.267 481.185 182.877 481.07 182.427 481.07L180.582 481.055L181.437 480.47ZM192.966 480.89L195.966 484.61L195.141 485.195L192.336 481.715L189.846 485L188.976 484.985L191.931 481.22L189.261 477.89L190.101 477.32L192.576 480.395L194.751 477.5H195.621L192.966 480.89ZM204.907 480.875L201.562 477.5H202.462L205.942 481.115L202.237 485.195L201.412 484.61L204.907 480.875ZM207.187 485.015H206.227V477.5H207.187V485.015ZM211.867 477.5L208.522 480.86L212.017 484.61L211.192 485.195L207.487 481.115L210.952 477.5H211.867ZM214.816 483.635L219.421 478.01L220.381 477.35V485H219.421V478.835L214.816 484.46L213.856 485.15V477.5H214.816V483.635ZM227.371 480.815C227.861 480.855 228.251 481.045 228.541 481.385C228.841 481.715 228.991 482.11 228.991 482.57C228.991 482.96 228.881 483.32 228.661 483.65C228.451 483.97 228.146 484.22 227.746 484.4C228.066 484.03 228.226 483.625 228.226 483.185C228.226 482.685 228.051 482.265 227.701 481.925C227.361 481.585 226.916 481.415 226.366 481.415L224.191 481.4L225.046 480.815H227.191H227.356C227.626 480.485 227.761 480.12 227.761 479.72C227.761 479.25 227.596 478.86 227.266 478.55C226.936 478.24 226.506 478.085 225.976 478.085H224.191V484.4H227.746L226.906 485L224.191 484.985V485H223.231V478.085L224.101 477.5H226.801C227.331 477.5 227.756 477.655 228.076 477.965C228.396 478.265 228.556 478.645 228.556 479.105C228.556 479.455 228.451 479.785 228.241 480.095C228.031 480.395 227.741 480.635 227.371 480.815ZM235.038 477.35C236.018 477.35 236.853 477.7 237.543 478.4C238.233 479.1 238.578 479.945 238.578 480.935C238.578 481.605 238.398 482.23 238.038 482.81C237.688 483.38 237.223 483.815 236.643 484.115C237.383 483.425 237.753 482.565 237.753 481.535C237.753 480.545 237.408 479.7 236.718 479C236.028 478.29 235.188 477.935 234.198 477.935C233.638 477.935 233.098 478.07 232.578 478.34C233.258 477.68 234.078 477.35 235.038 477.35ZM231.468 480.935C231.468 481.925 231.813 482.77 232.503 483.47C233.193 484.17 234.033 484.52 235.023 484.52C235.573 484.52 236.113 484.385 236.643 484.115C235.963 484.785 235.143 485.12 234.183 485.12C233.203 485.12 232.368 484.77 231.678 484.07C230.988 483.37 230.643 482.525 230.643 481.535C230.643 480.845 230.818 480.215 231.168 479.645C231.518 479.075 231.988 478.64 232.578 478.34C231.838 479.03 231.468 479.895 231.468 480.935ZM241.503 477.5H247.038V485H246.078V478.085H241.593V485H240.633V478.085L241.503 477.5ZM250.851 483.635L255.456 478.01L256.416 477.35V485H255.456V478.835L250.851 484.46L249.891 485.15V477.5H250.851V483.635ZM264.729 477.89L263.904 478.46C263.414 478.12 262.874 477.94 262.284 477.92C261.694 477.89 261.109 478.03 260.529 478.34C261.089 477.75 261.784 477.425 262.614 477.365C263.444 477.295 264.149 477.47 264.729 477.89ZM259.389 480.965C259.379 481.945 259.729 482.785 260.439 483.485C261.159 484.175 262.029 484.52 263.049 484.52C263.749 484.52 264.354 484.37 264.864 484.07C264.544 484.39 264.144 484.645 263.664 484.835C263.184 485.025 262.699 485.12 262.209 485.12C261.199 485.12 260.334 484.775 259.614 484.085C258.904 483.375 258.549 482.525 258.549 481.535C258.549 480.865 258.729 480.245 259.089 479.675C259.449 479.095 259.929 478.65 260.529 478.34C260.169 478.64 259.889 479.025 259.689 479.495C259.489 479.955 259.389 480.445 259.389 480.965ZM267.682 485H266.722V477.5H267.682V485ZM272.287 480.62V477.5H273.247V485H272.287V481.205H267.697L268.537 480.62H272.287ZM277.057 477.5V484.4H280.462L279.622 485L277.057 484.985V485H276.097V477.5H277.057ZM282.652 485V477.5H283.612V485H282.652ZM277.912 480.47H279.727C280.257 480.47 280.702 480.63 281.062 480.95C281.422 481.27 281.632 481.655 281.692 482.105C281.752 482.555 281.672 483 281.452 483.44C281.232 483.88 280.902 484.2 280.462 484.4C280.712 484.09 280.862 483.74 280.912 483.35C280.962 482.96 280.917 482.6 280.777 482.27C280.647 481.93 280.412 481.645 280.072 481.415C279.742 481.185 279.352 481.07 278.902 481.07L277.057 481.055L277.912 480.47ZM289.441 480.89L292.441 484.61L291.616 485.195L288.811 481.715L286.321 485L285.451 484.985L288.406 481.22L285.736 477.89L286.576 477.32L289.051 480.395L291.226 477.5H292.096L289.441 480.89ZM139.88 492.35L141.155 499.58L140.255 500.15L139.16 493.94L136.865 499.43H136.835L135.98 499.97L133.535 493.91L132.59 500H131.9L133.13 492.905L134.015 492.35L136.565 498.68L138.98 492.92L139.88 492.35ZM149.549 495.77L148.709 496.37L143.549 496.355C143.649 497.285 144.054 498.05 144.764 498.65C145.494 499.25 146.319 499.545 147.239 499.535C147.849 499.525 148.444 499.37 149.024 499.07C148.264 499.78 147.379 500.135 146.369 500.135C145.369 500.135 144.504 499.8 143.774 499.13C143.054 498.45 142.694 497.58 142.694 496.52C142.694 495.84 142.869 495.215 143.219 494.645C143.579 494.075 144.059 493.635 144.659 493.325C143.909 493.955 143.534 494.83 143.534 495.95C143.534 496.16 143.539 496.295 143.549 496.355L144.404 495.77H148.754C148.734 495.03 148.519 494.41 148.109 493.91C147.689 493.41 147.174 493.11 146.564 493.01C145.954 492.91 145.319 493.015 144.659 493.325C145.249 492.695 145.959 492.375 146.789 492.365C147.659 492.365 148.369 492.7 148.919 493.37C149.489 494.03 149.699 494.83 149.549 495.77ZM157.282 492.89L156.457 493.46C155.967 493.12 155.427 492.94 154.837 492.92C154.247 492.89 153.662 493.03 153.082 493.34C153.642 492.75 154.337 492.425 155.167 492.365C155.997 492.295 156.702 492.47 157.282 492.89ZM151.942 495.965C151.932 496.945 152.282 497.785 152.992 498.485C153.712 499.175 154.582 499.52 155.602 499.52C156.302 499.52 156.907 499.37 157.417 499.07C157.097 499.39 156.697 499.645 156.217 499.835C155.737 500.025 155.252 500.12 154.762 500.12C153.752 500.12 152.887 499.775 152.167 499.085C151.457 498.375 151.102 497.525 151.102 496.535C151.102 495.865 151.282 495.245 151.642 494.675C152.002 494.095 152.482 493.65 153.082 493.34C152.722 493.64 152.442 494.025 152.242 494.495C152.042 494.955 151.942 495.445 151.942 495.965ZM158.781 492.5H165.141L164.301 493.085H161.991V500H161.031V493.085H157.941L158.781 492.5ZM178.567 492.35L179.842 499.58L178.942 500.15L177.847 493.94L175.552 499.43H175.522L174.667 499.97L172.222 493.91L171.277 500H170.587L171.817 492.905L172.702 492.35L175.252 498.68L177.667 492.92L178.567 492.35ZM183.058 498.635L187.663 493.01L188.623 492.35V500H187.663V493.835L183.058 499.46L182.098 500.15V492.5H183.058V498.635ZM194.983 492.335C195.893 492.335 196.638 492.665 197.218 493.325C197.808 493.995 198.103 494.82 198.103 495.8C198.103 496.52 197.903 497.21 197.503 497.87C197.103 498.53 196.573 499.04 195.913 499.4C196.823 498.59 197.278 497.565 197.278 496.325C197.278 495.405 196.998 494.61 196.438 493.94C195.878 493.28 195.138 492.95 194.218 492.95C193.528 492.95 192.933 493.14 192.433 493.52C193.103 492.73 193.953 492.335 194.983 492.335ZM192.433 492.5V499.4H195.913L195.073 499.985L192.433 500V503.75H191.473V492.5H192.433ZM205.435 495.095V500H204.475V496.055L204.46 496.07H201.295L202.135 495.485L204.475 495.47C204.435 494.68 204.19 494.06 203.74 493.61C203.29 493.15 202.725 492.92 202.045 492.92C201.385 492.92 200.75 493.12 200.14 493.52C200.87 492.73 201.735 492.335 202.735 492.335C203.485 492.335 204.12 492.58 204.64 493.07C205.15 493.56 205.415 494.235 205.435 495.095ZM200.485 497.525C200.485 498.085 200.685 498.55 201.085 498.92C201.485 499.29 202.015 499.475 202.675 499.475C203.295 499.475 203.895 499.245 204.475 498.785C204.155 499.195 203.765 499.51 203.305 499.73C202.845 499.95 202.375 500.06 201.895 500.06C201.255 500.06 200.72 499.87 200.29 499.49C199.88 499.1 199.675 498.64 199.675 498.11C199.675 497.68 199.82 497.28 200.11 496.91C200.4 496.53 200.795 496.25 201.295 496.07C200.755 496.43 200.485 496.915 200.485 497.525Z" fill="black"/>
<path d="M266 31H289" stroke="black" stroke-width="2" stroke-linecap="round" stroke-linejoin="round"/>
<path d="M266 37H289" stroke="black" stroke-width="2" stroke-linecap="round" stroke-linejoin="round"/>
<path d="M266 43H289" stroke="black" stroke-width="2" stroke-linecap="round" stroke-linejoin="round"/>
</g>
<defs>
<radialGradient id="paint0_radial" cx="0" cy="0" r="1" gradientUnits="userSpaceOnUse" gradientTransform="translate(81.8216 81.8216) rotate(90) scale(81.8216)">
<stop stop-color="#F68A6A"/>
<stop offset="1" stop-color="white" stop-opacity="0"/>
</radialGradient>
<radialGradient id="paint1_radial" cx="0" cy="0" r="1" gradientUnits="userSpaceOnUse" gradientTransform="translate(81.8216 81.8216) rotate(90) scale(81.8216)">
<stop stop-color="#B64022"/>
<stop offset="1" stop-color="white" stop-opacity="0"/>
</radialGradient>
<radialGradient id="paint2_radial" cx="0" cy="0" r="1" gradientUnits="userSpaceOnUse" gradientTransform="translate(121.735 120.737) rotate(90) scale(120.737 121.735)">
<stop stop-color="#C95943"/>
<stop offset="1" stop-color="white" stop-opacity="0"/>
</radialGradient>
<radialGradient id="paint3_radial" cx="0" cy="0" r="1" gradientUnits="userSpaceOnUse" gradientTransform="translate(121.735 121.735) rotate(90) scale(121.735)">
<stop stop-color="#F68A6A"/>
<stop offset="1" stop-color="white" stop-opacity="0"/>
</radialGradient>
<radialGradient id="paint4_radial" cx="0" cy="0" r="1" gradientUnits="userSpaceOnUse" gradientTransform="translate(120.737 120.737) rotate(90) scale(120.737)">
<stop offset="0.648958" stop-color="#F68A6A"/>
<stop offset="1" stop-color="white" stop-opacity="0"/>
</radialGradient>
<radialGradient id="paint5_radial" cx="0" cy="0" r="1" gradientUnits="userSpaceOnUse" gradientTransform="translate(121.735 120.737) rotate(90) scale(120.737 121.735)">
<stop stop-color="#F68A6A"/>
<stop offset="1" stop-color="white" stop-opacity="0"/>
</radialGradient>
<radialGradient id="paint6_radial" cx="0" cy="0" r="1" gradientUnits="userSpaceOnUse" gradientTransform="translate(121.735 121.735) rotate(90) scale(121.735)">
<stop stop-color="#C5512C"/>
<stop offset="1" stop-color="white" stop-opacity="0"/>
</radialGradient>
<radialGradient id="paint7_radial" cx="0" cy="0" r="1" gradientUnits="userSpaceOnUse" gradientTransform="translate(121.735 121.735) rotate(90) scale(121.735)">
<stop stop-color="#C5512C"/>
<stop offset="1" stop-color="white" stop-opacity="0"/>
</radialGradient>
<radialGradient id="paint8_radial" cx="0" cy="0" r="1" gradientUnits="userSpaceOnUse" gradientTransform="translate(121.735 120.737) rotate(90) scale(120.737 121.735)">
<stop stop-color="#962B1A"/>
<stop offset="1" stop-color="white" stop-opacity="0"/>
</radialGradient>
<radialGradient id="paint9_radial" cx="0" cy="0" r="1" gradientUnits="userSpaceOnUse" gradientTransform="translate(103.774 103.774) rotate(90) scale(103.774)">
<stop stop-color="#962B1A"/>
<stop offset="1" stop-color="white" stop-opacity="0"/>
</radialGradient>
<radialGradient id="paint10_radial" cx="0" cy="0" r="1" gradientUnits="userSpaceOnUse" gradientTransform="translate(103.774 102.776) rotate(90) scale(102.776 103.774)">
<stop offset="0.430208" stop-color="#962B1A"/>
<stop offset="1" stop-color="white" stop-opacity="0"/>
</radialGradient>
<radialGradient id="paint11_radial" cx="0" cy="0" r="1" gradientUnits="userSpaceOnUse" gradientTransform="translate(46.8977 45.8999) rotate(90) scale(45.8999 46.8977)">
<stop stop-color="#8A2314"/>
<stop offset="0.0001" stop-color="#9B301D"/>
<stop offset="1" stop-color="white" stop-opacity="0"/>
</radialGradient>
<radialGradient id="paint12_radial" cx="0" cy="0" r="1" gradientUnits="userSpaceOnUse" gradientTransform="translate(81.8216 81.8216) rotate(90) scale(81.8216)">
<stop stop-color="#962B1A"/>
<stop offset="1" stop-color="white" stop-opacity="0"/>
</radialGradient>
<radialGradient id="paint13_radial" cx="0" cy="0" r="1" gradientUnits="userSpaceOnUse" gradientTransform="translate(81.8216 80.8237) rotate(90) scale(80.8237 81.8216)">
<stop stop-color="#962B1A"/>
<stop offset="1" stop-color="white" stop-opacity="0"/>
</radialGradient>
<radialGradient id="paint14_radial" cx="0" cy="0" r="1" gradientUnits="userSpaceOnUse" gradientTransform="translate(81.8216 80.8237) rotate(90) scale(80.8237 81.8216)">
<stop stop-color="#962B1A"/>
<stop offset="1" stop-color="white" stop-opacity="0"/>
</radialGradient>
<radialGradient id="paint15_radial" cx="0" cy="0" r="1" gradientUnits="userSpaceOnUse" gradientTransform="translate(81.8216 81.8216) rotate(90) scale(81.8216)">
<stop stop-color="#962B1A"/>
<stop offset="1" stop-color="white" stop-opacity="0"/>
</radialGradient>
<radialGradient id="paint16_radial" cx="0" cy="0" r="1" gradientUnits="userSpaceOnUse" gradientTransform="translate(81.8216 81.8216) rotate(90) scale(81.8216)">
<stop stop-color="#962B1A"/>
<stop offset="1" stop-color="white" stop-opacity="0"/>
</radialGradient>
<clipPath id="clip0">
<rect width="320" height="568" fill="white"/>
</clipPath>
</defs>
</svg>
