<svg width="95" height="22" viewBox="0 0 95 22" fill="none" xmlns="http://www.w3.org/2000/svg">
<path id="UNDER" d="M2.872 1.4V12.292C2.83467 14.7187 3.44133 16.632 4.692 18.032C5.94267 19.4507 7.52933 20.16 9.452 20.16C11.2067 20.16 12.9613 19.5533 14.716 18.34C12.7187 20.356 10.488 21.364 8.024 21.364C6.064 21.364 4.40267 20.636 3.04 19.18C1.65867 17.724 0.958667 15.7827 0.94 13.356V1.4H2.872ZM14.716 18.34V1.4H16.648V17.108L14.716 18.34ZM37.2136 17.836V1.4H38.3896V21H37.2136L23.8856 4.564V21H22.6816V3.08L21.9256 2.156L23.5496 0.979999L37.2136 17.836ZM45.9878 1.4H50.2438C53.1932 1.4 55.6012 2.30533 57.4678 4.116C59.3532 5.94533 60.2958 8.232 60.2958 10.976C60.2958 12.04 60.1092 13.0947 59.7358 14.14C59.3625 15.1667 58.8678 16.0627 58.2518 16.828C57.2252 18.1533 56.2265 19.152 55.2558 19.824C56.0398 19.152 56.8052 18.1347 57.5518 16.772C58.2798 15.428 58.6625 13.8507 58.6998 12.04C58.6998 9.38933 57.7572 7.14933 55.8718 5.32C53.9865 3.49067 51.5505 2.576 48.5638 2.576H46.2118V19.824H55.2558L53.5478 21H44.2798V2.576L45.9878 1.4ZM66.6103 11.088V19.824H76.1583L74.4503 21H64.6783V2.576L66.3863 1.4H76.0183L74.3103 2.576H66.6103V9.912H75.0383L73.3303 11.088H66.6103ZM82.1363 1.4H87.0923C88.1936 1.4 89.1643 1.64267 90.0043 2.128C90.8443 2.61333 91.4323 3.248 91.7683 4.032C92.1229 4.816 92.3003 5.64667 92.3003 6.524C92.3003 7.38267 92.0203 8.24133 91.4603 9.1C90.9003 9.94 90.1256 10.6307 89.1363 11.172C89.9203 10.276 90.3963 9.31467 90.5643 8.288C90.7509 7.26133 90.6669 6.33733 90.3123 5.516C89.9763 4.676 89.3696 3.976 88.4923 3.416C87.6336 2.856 86.6069 2.576 85.4123 2.576H82.3603V21H80.4283V2.576L82.1363 1.4ZM84.0963 11.172H89.1363L94.9323 20.132L93.2523 21.336L87.4563 12.348H82.3883L84.0963 11.172Z" fill="black"/>
</svg>
