<svg width="1440" height="900" viewBox="0 0 1440 900" fill="none" xmlns="http://www.w3.org/2000/svg">
<g clip-path="url(#clip0)">
<rect width="1440" height="900" fill="white"/>
<path d="M796.916 56.712C797.767 57.5773 798.881 58.01 800.26 58.01C801.639 58.01 802.753 57.5773 803.604 56.712C804.455 55.8467 804.88 54.7027 804.88 53.28C804.88 51.8573 804.455 50.7133 803.604 49.848C802.753 48.9827 801.639 48.55 800.26 48.55C798.881 48.55 797.767 48.9827 796.916 49.848C796.065 50.7133 795.64 51.8573 795.64 53.28C795.64 54.7027 796.065 55.8467 796.916 56.712ZM804.506 57.636C803.391 58.7653 801.976 59.33 800.26 59.33C798.544 59.33 797.121 58.7653 795.992 57.636C794.877 56.492 794.32 55.04 794.32 53.28C794.32 51.52 794.877 50.0753 795.992 48.946C797.121 47.802 798.544 47.23 800.26 47.23C801.976 47.23 803.391 47.802 804.506 48.946C805.635 50.0753 806.2 51.52 806.2 53.28C806.2 55.04 805.635 56.492 804.506 57.636ZM823.473 59V53.83H816.213V59H814.893V47.56H816.213V52.51H823.473V47.56H824.793V59H823.473ZM831.836 58.01C832.349 58.01 832.833 57.9073 833.288 57.702C833.757 57.482 834.131 57.2253 834.41 56.932C834.703 56.624 834.96 56.3233 835.18 56.03C835.4 55.722 835.554 55.4653 835.642 55.26L835.796 54.93C835.693 54.8273 835.547 54.6953 835.356 54.534C835.18 54.3727 834.777 54.16 834.146 53.896C833.515 53.632 832.855 53.5 832.166 53.5C830.186 53.5 829.196 54.27 829.196 55.81C829.196 56.4847 829.416 57.02 829.856 57.416C830.311 57.812 830.971 58.01 831.836 58.01ZM832.606 47.23C833.985 47.23 835.077 47.648 835.884 48.484C836.705 49.3053 837.116 50.4273 837.116 51.85V59H835.906L835.796 56.91H835.686C835.657 56.9687 835.605 57.0567 835.532 57.174C835.473 57.2767 835.319 57.4673 835.07 57.746C834.835 58.0247 834.579 58.274 834.3 58.494C834.021 58.6993 833.647 58.89 833.178 59.066C832.723 59.242 832.239 59.33 831.726 59.33C830.582 59.33 829.651 59 828.932 58.34C828.228 57.6653 827.876 56.822 827.876 55.81C827.876 54.7393 828.25 53.8667 828.998 53.192C829.746 52.5173 830.765 52.18 832.056 52.18C832.745 52.18 833.398 52.2827 834.014 52.488C834.645 52.6933 835.099 52.8987 835.378 53.104L835.796 53.39V51.85C835.796 49.65 834.733 48.55 832.606 48.55C831.887 48.55 831.169 48.6893 830.45 48.968C829.746 49.232 829.218 49.5033 828.866 49.782L828.316 50.2H828.096V48.77C828.228 48.6527 828.411 48.5133 828.646 48.352C828.895 48.176 829.409 47.9487 830.186 47.67C830.978 47.3767 831.785 47.23 832.606 47.23ZM850.089 56.47V57.9C849.986 58.0027 849.825 58.1347 849.605 58.296C849.4 58.4573 848.945 58.67 848.241 58.934C847.537 59.198 846.796 59.33 846.019 59.33C844.362 59.33 842.976 58.758 841.861 57.614C840.746 56.47 840.189 55.0253 840.189 53.28C840.189 51.5347 840.746 50.09 841.861 48.946C842.976 47.802 844.362 47.23 846.019 47.23C846.576 47.23 847.104 47.2887 847.603 47.406C848.116 47.5233 848.534 47.67 848.857 47.846C849.18 48.022 849.466 48.198 849.715 48.374C849.964 48.55 850.148 48.6967 850.265 48.814L850.419 48.99L849.869 50.09C849.766 49.9727 849.612 49.8333 849.407 49.672C849.202 49.496 848.776 49.2687 848.131 48.99C847.486 48.6967 846.818 48.55 846.129 48.55C844.75 48.55 843.636 48.9827 842.785 49.848C841.934 50.7133 841.509 51.8573 841.509 53.28C841.509 54.7027 841.934 55.8467 842.785 56.712C843.636 57.5773 844.75 58.01 846.129 58.01C846.818 58.01 847.464 57.8853 848.065 57.636C848.666 57.372 849.099 57.108 849.363 56.844L849.759 56.47H850.089Z" fill="black"/>
<path d="M1281.19 47.56V53.17L1287.68 47.56H1289.44L1282.84 53.17L1289.66 59H1287.79L1281.19 53.28V59H1279.87V47.56H1281.19ZM1293.15 56.712C1294 57.5773 1295.12 58.01 1296.5 58.01C1297.87 58.01 1298.99 57.5773 1299.84 56.712C1300.69 55.8467 1301.12 54.7027 1301.12 53.28C1301.12 51.8573 1300.69 50.7133 1299.84 49.848C1298.99 48.9827 1297.87 48.55 1296.5 48.55C1295.12 48.55 1294 48.9827 1293.15 49.848C1292.3 50.7133 1291.88 51.8573 1291.88 53.28C1291.88 54.7027 1292.3 55.8467 1293.15 56.712ZM1300.74 57.636C1299.63 58.7653 1298.21 59.33 1296.5 59.33C1294.78 59.33 1293.36 58.7653 1292.23 57.636C1291.11 56.492 1290.56 55.04 1290.56 53.28C1290.56 51.52 1291.11 50.0753 1292.23 48.946C1293.36 47.802 1294.78 47.23 1296.5 47.23C1298.21 47.23 1299.63 47.802 1300.74 48.946C1301.87 50.0753 1302.44 51.52 1302.44 53.28C1302.44 55.04 1301.87 56.492 1300.74 57.636ZM1314.21 59V53.83H1306.95V59H1305.63V47.56H1306.95V52.51H1314.21V47.56H1315.53V59H1314.21ZM1322.02 48.88H1317.84V47.56H1327.52V48.88H1323.34V59H1322.02V48.88ZM1332.71 58.01C1333.23 58.01 1333.71 57.9073 1334.16 57.702C1334.63 57.482 1335.01 57.2253 1335.29 56.932C1335.58 56.624 1335.84 56.3233 1336.06 56.03C1336.28 55.722 1336.43 55.4653 1336.52 55.26L1336.67 54.93C1336.57 54.8273 1336.42 54.6953 1336.23 54.534C1336.06 54.3727 1335.65 54.16 1335.02 53.896C1334.39 53.632 1333.73 53.5 1333.04 53.5C1331.06 53.5 1330.07 54.27 1330.07 55.81C1330.07 56.4847 1330.29 57.02 1330.73 57.416C1331.19 57.812 1331.85 58.01 1332.71 58.01ZM1333.48 47.23C1334.86 47.23 1335.95 47.648 1336.76 48.484C1337.58 49.3053 1337.99 50.4273 1337.99 51.85V59H1336.78L1336.67 56.91H1336.56C1336.53 56.9687 1336.48 57.0567 1336.41 57.174C1336.35 57.2767 1336.2 57.4673 1335.95 57.746C1335.71 58.0247 1335.46 58.274 1335.18 58.494C1334.9 58.6993 1334.52 58.89 1334.05 59.066C1333.6 59.242 1333.12 59.33 1332.6 59.33C1331.46 59.33 1330.53 59 1329.81 58.34C1329.1 57.6653 1328.75 56.822 1328.75 55.81C1328.75 54.7393 1329.13 53.8667 1329.87 53.192C1330.62 52.5173 1331.64 52.18 1332.93 52.18C1333.62 52.18 1334.27 52.2827 1334.89 52.488C1335.52 52.6933 1335.98 52.8987 1336.25 53.104L1336.67 53.39V51.85C1336.67 49.65 1335.61 48.55 1333.48 48.55C1332.76 48.55 1332.05 48.6893 1331.33 48.968C1330.62 49.232 1330.09 49.5033 1329.74 49.782L1329.19 50.2H1328.97V48.77C1329.1 48.6527 1329.29 48.5133 1329.52 48.352C1329.77 48.176 1330.29 47.9487 1331.06 47.67C1331.85 47.3767 1332.66 47.23 1333.48 47.23ZM1342.94 47.56V53.17L1349.43 47.56H1351.19L1344.59 53.17L1351.41 59H1349.54L1342.94 53.28V59H1341.62V47.56H1342.94ZM1355.6 48.88H1351.42V47.56H1361.1V48.88H1356.92V59H1355.6V48.88ZM1374.2 59V47.34H1375.52V59H1374.2ZM1364.74 51.52H1367.82C1369.01 51.52 1369.99 51.8793 1370.75 52.598C1371.51 53.3167 1371.89 54.204 1371.89 55.26C1371.89 56.316 1371.51 57.2033 1370.75 57.922C1369.99 58.6407 1369.01 59 1367.82 59H1363.42V47.56H1364.74V51.52ZM1367.82 52.84H1364.74V57.68H1367.82C1368.69 57.68 1369.36 57.46 1369.85 57.02C1370.33 56.58 1370.57 55.9933 1370.57 55.26C1370.57 54.5267 1370.33 53.94 1369.85 53.5C1369.36 53.06 1368.69 52.84 1367.82 52.84Z" fill="black"/>
<path d="M1110.22 56.47V57.9C1110.12 58.0027 1109.96 58.1347 1109.74 58.296C1109.53 58.4573 1109.08 58.67 1108.37 58.934C1107.67 59.198 1106.93 59.33 1106.15 59.33C1104.49 59.33 1103.11 58.758 1101.99 57.614C1100.88 56.47 1100.32 55.0253 1100.32 53.28C1100.32 51.5347 1100.88 50.09 1101.99 48.946C1103.11 47.802 1104.49 47.23 1106.15 47.23C1106.71 47.23 1107.24 47.2887 1107.73 47.406C1108.25 47.5233 1108.67 47.67 1108.99 47.846C1109.31 48.022 1109.6 48.198 1109.85 48.374C1110.1 48.55 1110.28 48.6967 1110.4 48.814L1110.55 48.99L1110 50.09C1109.9 49.9727 1109.74 49.8333 1109.54 49.672C1109.33 49.496 1108.91 49.2687 1108.26 48.99C1107.62 48.6967 1106.95 48.55 1106.26 48.55C1104.88 48.55 1103.77 48.9827 1102.92 49.848C1102.07 50.7133 1101.64 51.8573 1101.64 53.28C1101.64 54.7027 1102.07 55.8467 1102.92 56.712C1103.77 57.5773 1104.88 58.01 1106.26 58.01C1106.95 58.01 1107.59 57.8853 1108.2 57.636C1108.8 57.372 1109.23 57.108 1109.49 56.844L1109.89 56.47H1110.22ZM1115.03 56.712C1115.88 57.5773 1117 58.01 1118.38 58.01C1119.76 58.01 1120.87 57.5773 1121.72 56.712C1122.57 55.8467 1123 54.7027 1123 53.28C1123 51.8573 1122.57 50.7133 1121.72 49.848C1120.87 48.9827 1119.76 48.55 1118.38 48.55C1117 48.55 1115.88 48.9827 1115.03 49.848C1114.18 50.7133 1113.76 51.8573 1113.76 53.28C1113.76 54.7027 1114.18 55.8467 1115.03 56.712ZM1122.62 57.636C1121.51 58.7653 1120.09 59.33 1118.38 59.33C1116.66 59.33 1115.24 58.7653 1114.11 57.636C1112.99 56.492 1112.44 55.04 1112.44 53.28C1112.44 51.52 1112.99 50.0753 1114.11 48.946C1115.24 47.802 1116.66 47.23 1118.38 47.23C1120.09 47.23 1121.51 47.802 1122.62 48.946C1123.75 50.0753 1124.32 51.52 1124.32 53.28C1124.32 55.04 1123.75 56.492 1122.62 57.636ZM1129.69 56.778C1130.48 57.5993 1131.51 58.01 1132.79 58.01C1134.07 58.01 1135.1 57.5993 1135.89 56.778C1136.68 55.9567 1137.08 54.864 1137.08 53.5C1137.08 52.18 1136.68 51.1167 1135.89 50.31C1135.1 49.5033 1134.07 49.1 1132.79 49.1C1131.51 49.1 1130.48 49.5033 1129.69 50.31C1128.9 51.1167 1128.5 52.18 1128.5 53.5C1128.5 54.864 1128.9 55.9567 1129.69 56.778ZM1127.18 53.28V51.96C1127.18 48.616 1127.73 46.2253 1128.83 44.788C1129.95 43.336 1131.6 42.61 1133.78 42.61C1134.47 42.61 1135.12 42.5513 1135.74 42.434C1136.37 42.302 1136.82 42.17 1137.1 42.038L1137.52 41.84V43.27C1136.71 43.71 1135.47 43.93 1133.78 43.93C1130.58 43.93 1128.82 45.9833 1128.5 50.09H1128.61C1128.64 50.0313 1128.68 49.9507 1128.74 49.848C1128.8 49.7453 1128.95 49.562 1129.18 49.298C1129.43 49.0193 1129.7 48.7847 1129.97 48.594C1130.27 48.3887 1130.66 48.2053 1131.16 48.044C1131.68 47.868 1132.22 47.78 1132.79 47.78C1134.39 47.78 1135.72 48.3227 1136.79 49.408C1137.87 50.4933 1138.4 51.8573 1138.4 53.5C1138.4 55.1867 1137.87 56.58 1136.79 57.68C1135.72 58.78 1134.39 59.33 1132.79 59.33C1131.18 59.33 1129.84 58.7727 1128.76 57.658C1127.71 56.5287 1127.18 55.0693 1127.18 53.28ZM1152.36 59V47.34H1153.68V59H1152.36ZM1142.9 51.52H1145.98C1147.17 51.52 1148.15 51.8793 1148.91 52.598C1149.67 53.3167 1150.05 54.204 1150.05 55.26C1150.05 56.316 1149.67 57.2033 1148.91 57.922C1148.15 58.6407 1147.17 59 1145.98 59H1141.58V47.56H1142.9V51.52ZM1145.98 52.84H1142.9V57.68H1145.98C1146.85 57.68 1147.52 57.46 1148.01 57.02C1148.49 56.58 1148.73 55.9933 1148.73 55.26C1148.73 54.5267 1148.49 53.94 1148.01 53.5C1147.52 53.06 1146.85 52.84 1145.98 52.84ZM1160.17 48.88H1155.99V47.56H1165.67V48.88H1161.49V59H1160.17V48.88ZM1176.79 59V49.65L1169.2 59H1167.99V47.56H1169.31V56.91L1176.9 47.56H1178.11V59H1176.79ZM1188.88 54.82H1185.91L1182.06 59H1180.3L1184.15 54.82V54.71C1184.08 54.6953 1183.98 54.6733 1183.85 54.644C1183.73 54.6 1183.51 54.4973 1183.19 54.336C1182.88 54.16 1182.6 53.9547 1182.35 53.72C1182.12 53.4853 1181.9 53.148 1181.69 52.708C1181.5 52.2533 1181.4 51.7473 1181.4 51.19C1181.4 50.1193 1181.77 49.2467 1182.5 48.572C1183.24 47.8973 1184.23 47.56 1185.47 47.56H1190.2V59H1188.88V54.82ZM1183.41 49.496C1182.95 49.892 1182.72 50.4567 1182.72 51.19C1182.72 51.9233 1182.95 52.4953 1183.41 52.906C1183.88 53.302 1184.57 53.5 1185.47 53.5H1188.88V48.88H1185.47C1184.57 48.88 1183.88 49.0853 1183.41 49.496Z" fill="black"/>
<path d="M958.62 48.88H954.44V47.56H964.12V48.88H959.94V59H958.62V48.88ZM976.34 47.56L969.74 63.84H968.31L970.29 59L965.12 47.56H966.55L970.906 57.24H970.994L974.91 47.56H976.34ZM981.281 49.87C980.474 50.7353 980.071 51.872 980.071 53.28C980.071 54.688 980.474 55.832 981.281 56.712C982.102 57.5773 983.129 58.01 984.361 58.01C985.593 58.01 986.612 57.5773 987.419 56.712C988.24 55.832 988.651 54.688 988.651 53.28C988.651 51.872 988.24 50.7353 987.419 49.87C986.612 48.99 985.593 48.55 984.361 48.55C983.129 48.55 982.102 48.99 981.281 49.87ZM979.961 47.56L980.071 49.54H980.181C980.21 49.4813 980.262 49.4007 980.335 49.298C980.408 49.1953 980.57 49.012 980.819 48.748C981.083 48.4693 981.369 48.2347 981.677 48.044C981.985 47.8387 982.388 47.6553 982.887 47.494C983.386 47.318 983.914 47.23 984.471 47.23C985.982 47.23 987.272 47.8093 988.343 48.968C989.428 50.112 989.971 51.5493 989.971 53.28C989.971 55.0107 989.428 56.4553 988.343 57.614C987.272 58.758 985.982 59.33 984.471 59.33C983.914 59.33 983.386 59.2493 982.887 59.088C982.388 58.9267 981.978 58.736 981.655 58.516C981.347 58.296 981.076 58.076 980.841 57.856C980.606 57.6213 980.438 57.4233 980.335 57.262L980.181 57.02H980.071V63.84H978.751V47.56H979.961ZM1003.95 59V47.34H1005.27V59H1003.95ZM994.487 51.52H997.567C998.755 51.52 999.73 51.8793 1000.49 52.598C1001.26 53.3167 1001.64 54.204 1001.64 55.26C1001.64 56.316 1001.26 57.2033 1000.49 57.922C999.73 58.6407 998.755 59 997.567 59H993.167V47.56H994.487V51.52ZM997.567 52.84H994.487V57.68H997.567C998.432 57.68 999.107 57.46 999.591 57.02C1000.07 56.58 1000.32 55.9933 1000.32 55.26C1000.32 54.5267 1000.07 53.94 999.591 53.5C999.107 53.06 998.432 52.84 997.567 52.84Z" fill="black"/>
<rect x="58" y="778" width="252" height="84" fill="white"/>
<rect x="620" y="581" width="341" height="135" fill="white"/>
<path d="M294.354 820.354C294.549 820.158 294.549 819.842 294.354 819.646L291.172 816.464C290.976 816.269 290.66 816.269 290.464 816.464C290.269 816.66 290.269 816.976 290.464 817.172L293.293 820L290.464 822.828C290.269 823.024 290.269 823.34 290.464 823.536C290.66 823.731 290.976 823.731 291.172 823.536L294.354 820.354ZM225 820.5H294V819.5H225V820.5Z" fill="black"/>
<path d="M76.6464 820.354C76.4512 820.158 76.4512 819.842 76.6464 819.646L79.8284 816.464C80.0237 816.269 80.3403 816.269 80.5355 816.464C80.7308 816.66 80.7308 816.976 80.5355 817.172L77.7071 820L80.5355 822.828C80.7308 823.024 80.7308 823.34 80.5355 823.536C80.3403 823.731 80.0237 823.731 79.8284 823.536L76.6464 820.354ZM146 820.5H77V819.5H146V820.5Z" fill="black"/>
<path d="M172.82 817.56H174.25L168.53 827.68H173.92V823.06H175.24V827.68H177.66V829H175.24V833.84H173.92V829H166.44V828.78L172.82 817.56ZM178.096 833.84L186.676 811.4H188.106L179.526 833.84H178.096ZM193.937 833.95C193.365 833.95 192.808 833.877 192.265 833.73C191.737 833.583 191.29 833.407 190.923 833.202C190.571 833.011 190.256 832.813 189.977 832.608C189.713 832.403 189.515 832.227 189.383 832.08L189.207 831.86L189.757 830.76C189.801 830.804 189.86 830.87 189.933 830.958C190.021 831.046 190.197 831.193 190.461 831.398C190.74 831.618 191.026 831.809 191.319 831.97C191.627 832.146 192.016 832.3 192.485 832.432C192.955 832.564 193.439 832.63 193.937 832.63C195.155 832.63 196.115 832.271 196.819 831.552C197.538 830.848 197.897 829.887 197.897 828.67C197.897 827.453 197.538 826.492 196.819 825.788C196.115 825.069 195.155 824.71 193.937 824.71C193.351 824.71 192.779 824.835 192.221 825.084C191.679 825.319 191.275 825.553 191.011 825.788L190.637 826.14L189.757 825.7L190.967 817.56H198.777V818.88H192.067L191.297 824.16C191.957 823.647 192.837 823.39 193.937 823.39C195.477 823.39 196.739 823.889 197.721 824.886C198.719 825.869 199.217 827.13 199.217 828.67C199.217 830.21 198.719 831.471 197.721 832.454C196.739 833.451 195.477 833.95 193.937 833.95Z" fill="black"/>
<ellipse cx="261" cy="450.5" rx="130" ry="129.5" fill="url(#paint0_radial)"/>
<ellipse cx="1197" cy="194.5" rx="130" ry="129.5" fill="url(#paint1_radial)"/>
<ellipse cx="131" cy="271.5" rx="179" ry="178.5" fill="url(#paint2_radial)"/>
<ellipse cx="225" cy="402.5" rx="179" ry="178.5" fill="url(#paint3_radial)"/>
<ellipse cx="489" cy="466.5" rx="179" ry="178.5" fill="url(#paint4_radial)"/>
<ellipse cx="837" cy="551.5" rx="98" ry="97.5" fill="url(#paint5_radial)"/>
<ellipse cx="521" cy="418.5" rx="130" ry="129.5" fill="url(#paint6_radial)"/>
<ellipse cx="541" cy="580.5" rx="179" ry="178.5" fill="url(#paint7_radial)"/>
<ellipse cx="668" cy="580.5" rx="179" ry="178.5" fill="url(#paint8_radial)"/>
<ellipse cx="732" cy="470.5" rx="179" ry="178.5" fill="url(#paint9_radial)"/>
<ellipse cx="783" cy="421.5" rx="98" ry="97.5" fill="url(#paint10_radial)"/>
<ellipse cx="881" cy="466.5" rx="179" ry="178.5" fill="url(#paint11_radial)"/>
<ellipse cx="920" cy="401.5" rx="179" ry="178.5" fill="url(#paint12_radial)"/>
<ellipse cx="1032" cy="401.5" rx="179" ry="178.5" fill="url(#paint13_radial)"/>
<ellipse cx="1113" cy="401.5" rx="98" ry="97.5" fill="url(#paint14_radial)"/>
<ellipse cx="1133" cy="292.5" rx="179" ry="178.5" fill="url(#paint15_radial)"/>
<ellipse cx="1239" cy="292.5" rx="179" ry="178.5" fill="url(#paint16_radial)"/>
<ellipse cx="380" cy="369.5" rx="179" ry="178.5" fill="url(#paint17_radial)"/>
<ellipse cx="1324" cy="242.5" rx="179" ry="178.5" fill="url(#paint18_radial)"/>
<rect x="600" y="575" width="778" height="245" fill="white"/>
<path d="M652.932 609.9H672.701V647H669.097V612.126H653.462C653.886 616.967 653.692 621.701 652.879 626.33C652.066 630.959 650.759 634.722 648.957 637.619C651.324 630.694 651.572 622.196 649.699 612.126L652.932 609.9ZM642.703 647.265L640.795 643.025C644.717 641.965 647.438 640.163 648.957 637.619C648.462 639.456 647.65 641.294 646.519 643.131C645.424 645.004 644.152 646.382 642.703 647.265ZM704.867 632.054L701.899 634.174L683.667 634.121C684.021 637.407 685.452 640.11 687.96 642.23C690.54 644.35 693.455 645.392 696.705 645.357C698.861 645.322 700.963 644.774 703.012 643.714C700.327 646.223 697.2 647.477 693.631 647.477C690.098 647.477 687.042 646.293 684.462 643.926C681.918 641.523 680.646 638.449 680.646 634.704C680.646 632.301 681.265 630.093 682.501 628.079C683.773 626.065 685.469 624.51 687.589 623.415C684.939 625.641 683.614 628.733 683.614 632.69C683.614 633.432 683.632 633.909 683.667 634.121L686.688 632.054H702.058C701.988 629.439 701.228 627.249 699.779 625.482C698.295 623.715 696.476 622.655 694.32 622.302C692.165 621.949 689.921 622.32 687.589 623.415C689.674 621.189 692.183 620.058 695.115 620.023C698.189 620.023 700.698 621.207 702.641 623.574C704.655 625.906 705.397 628.733 704.867 632.054ZM732.634 644.933H736.45V652.565L733.27 654.791V647H711.858V652.565L708.678 654.791V644.88L729.242 644.933V622.567H716.999C717.282 633.132 715.427 640.569 711.434 644.88C712.953 642.619 713.925 639.297 714.349 634.916C714.808 630.676 714.685 626.56 713.978 622.567L715.038 621.878L716.999 620.5H732.634V644.933ZM750.361 620.5H762.922V647H759.53V622.567H747.393L750.361 620.5ZM750.149 635.711H749.831C747.322 635.711 745.45 634.863 744.213 633.167C742.976 631.471 742.658 629.563 743.259 627.443C743.86 625.288 745.238 623.662 747.393 622.567C746.51 623.592 745.962 624.758 745.75 626.065C745.573 627.337 745.697 628.538 746.121 629.669C746.58 630.764 747.375 631.701 748.506 632.478C749.672 633.22 751.05 633.591 752.64 633.591L756.191 633.644L743.312 647.689L740.503 645.675L750.149 635.711ZM776.372 647H772.98V620.5H776.372V647ZM792.643 631.524V620.5H796.035V647H792.643V633.591H776.425L779.393 631.524H792.643ZM809.497 620.5V644.88H821.528L818.56 647L809.497 646.947V647H806.105V620.5H809.497ZM829.266 647V620.5H832.658V647H829.266ZM812.518 630.994H818.931C820.804 630.994 822.376 631.559 823.648 632.69C824.92 633.821 825.662 635.181 825.874 636.771C826.086 638.361 825.804 639.933 825.026 641.488C824.249 643.043 823.083 644.173 821.528 644.88C822.412 643.785 822.942 642.548 823.118 641.17C823.295 639.792 823.136 638.52 822.641 637.354C822.182 636.153 821.352 635.146 820.15 634.333C818.984 633.52 817.606 633.114 816.016 633.114L809.497 633.061L812.518 630.994ZM864.437 632.054L861.469 634.174L843.237 634.121C843.59 637.407 845.021 640.11 847.53 642.23C850.109 644.35 853.024 645.392 856.275 645.357C858.43 645.322 860.532 644.774 862.582 643.714C859.896 646.223 856.769 647.477 853.201 647.477C849.667 647.477 846.611 646.293 844.032 643.926C841.488 641.523 840.216 638.449 840.216 634.704C840.216 632.301 840.834 630.093 842.071 628.079C843.343 626.065 845.039 624.51 847.159 623.415C844.509 625.641 843.184 628.733 843.184 632.69C843.184 633.432 843.201 633.909 843.237 634.121L846.258 632.054H861.628C861.557 629.439 860.797 627.249 859.349 625.482C857.865 623.715 856.045 622.655 853.89 622.302C851.734 621.949 849.491 622.32 847.159 623.415C849.243 621.189 851.752 620.058 854.685 620.023C857.759 620.023 860.267 621.207 862.211 623.574C864.225 625.906 864.967 628.733 864.437 632.054ZM891.008 620.5H910.565V647H907.173V622.567H891.326V647H887.934V622.567L891.008 620.5ZM942.332 632.054L939.364 634.174L921.132 634.121C921.486 637.407 922.917 640.11 925.425 642.23C928.005 644.35 930.92 645.392 934.17 645.357C936.326 645.322 938.428 644.774 940.477 643.714C937.792 646.223 934.665 647.477 931.096 647.477C927.563 647.477 924.507 646.293 921.927 643.926C919.383 641.523 918.111 638.449 918.111 634.704C918.111 632.301 918.73 630.093 919.966 628.079C921.238 626.065 922.934 624.51 925.054 623.415C922.404 625.641 921.079 628.733 921.079 632.69C921.079 633.432 921.097 633.909 921.132 634.121L924.153 632.054H939.523C939.453 629.439 938.693 627.249 937.244 625.482C935.76 623.715 933.941 622.655 931.785 622.302C929.63 621.949 927.386 622.32 925.054 623.415C927.139 621.189 929.648 620.058 932.58 620.023C935.654 620.023 938.163 621.207 940.106 623.574C942.12 625.906 942.862 628.733 942.332 632.054ZM982.912 644.933H986.728V652.565L983.495 654.791V647H949.681V620.5H953.073V644.88H964.68V620.5H968.072V644.88L979.52 644.933V620.5H982.912V644.933ZM1015.31 632.054L1012.34 634.174L994.111 634.121C994.464 637.407 995.895 640.11 998.404 642.23C1000.98 644.35 1003.9 645.392 1007.15 645.357C1009.3 645.322 1011.41 644.774 1013.46 643.714C1010.77 646.223 1007.64 647.477 1004.07 647.477C1000.54 647.477 997.485 646.293 994.906 643.926C992.362 641.523 991.09 638.449 991.09 634.704C991.09 632.301 991.708 630.093 992.945 628.079C994.217 626.065 995.913 624.51 998.033 623.415C995.383 625.641 994.058 628.733 994.058 632.69C994.058 633.432 994.075 633.909 994.111 634.121L997.132 632.054H1012.5C1012.43 629.439 1011.67 627.249 1010.22 625.482C1008.74 623.715 1006.92 622.655 1004.76 622.302C1002.61 621.949 1000.36 622.32 998.033 623.415C1000.12 621.189 1002.63 620.058 1005.56 620.023C1008.63 620.023 1011.14 621.207 1013.08 623.574C1015.1 625.906 1015.84 628.733 1015.31 632.054ZM1035.06 619.917C1038.28 619.917 1040.91 621.083 1042.96 623.415C1045.04 625.782 1046.09 628.697 1046.09 632.16C1046.09 634.704 1045.38 637.142 1043.97 639.474C1042.55 641.806 1040.68 643.608 1038.35 644.88C1041.56 642.018 1043.17 638.396 1043.17 634.015C1043.17 630.764 1042.18 627.955 1040.2 625.588C1038.22 623.256 1035.61 622.09 1032.36 622.09C1029.92 622.09 1027.82 622.761 1026.05 624.104C1028.42 621.313 1031.42 619.917 1035.06 619.917ZM1026.05 620.5V644.88H1038.35L1035.38 646.947L1026.05 647V660.25H1022.66V620.5H1026.05ZM1056.74 620.5V644.88H1068.78L1065.81 647L1056.74 646.947V647H1053.35V620.5H1056.74ZM1076.51 647V620.5H1079.91V647H1076.51ZM1059.77 630.994H1066.18C1068.05 630.994 1069.62 631.559 1070.9 632.69C1072.17 633.821 1072.91 635.181 1073.12 636.771C1073.33 638.361 1073.05 639.933 1072.27 641.488C1071.5 643.043 1070.33 644.173 1068.78 644.88C1069.66 643.785 1070.19 642.548 1070.37 641.17C1070.54 639.792 1070.38 638.52 1069.89 637.354C1069.43 636.153 1068.6 635.146 1067.4 634.333C1066.23 633.52 1064.85 633.114 1063.26 633.114L1056.74 633.061L1059.77 630.994ZM1127.78 630.464L1134.09 645.463L1130.91 647.742L1124.6 632.69H1109.76L1112.94 630.464H1123.65L1116.76 614.087L1104.3 647H1101.81L1115.64 611.384L1118.77 609.158L1127.78 630.464ZM1154.99 632.213C1156.72 632.354 1158.09 633.026 1159.12 634.227C1160.18 635.393 1160.71 636.789 1160.71 638.414C1160.71 639.792 1160.32 641.064 1159.54 642.23C1158.8 643.361 1157.72 644.244 1156.31 644.88C1157.44 643.573 1158.01 642.142 1158.01 640.587C1158.01 638.82 1157.39 637.336 1156.15 636.135C1154.95 634.934 1153.38 634.333 1151.43 634.333L1143.75 634.28L1146.77 632.213H1154.35H1154.93C1155.89 631.047 1156.36 629.757 1156.36 628.344C1156.36 626.683 1155.78 625.305 1154.61 624.21C1153.45 623.115 1151.93 622.567 1150.06 622.567H1143.75V644.88H1156.31L1153.34 647L1143.75 646.947V647H1140.36V622.567L1143.43 620.5H1152.97C1154.84 620.5 1156.35 621.048 1157.48 622.143C1158.61 623.203 1159.17 624.546 1159.17 626.171C1159.17 627.408 1158.8 628.574 1158.06 629.669C1157.32 630.729 1156.29 631.577 1154.99 632.213ZM1188.38 621.878L1185.47 623.892C1183.74 622.691 1181.83 622.055 1179.75 621.984C1177.66 621.878 1175.59 622.373 1173.54 623.468C1175.52 621.383 1177.98 620.235 1180.91 620.023C1183.84 619.776 1186.34 620.394 1188.38 621.878ZM1169.52 632.743C1169.48 636.206 1170.72 639.174 1173.23 641.647C1175.77 644.085 1178.84 645.304 1182.45 645.304C1184.92 645.304 1187.06 644.774 1188.86 643.714C1187.73 644.845 1186.32 645.746 1184.62 646.417C1182.93 647.088 1181.21 647.424 1179.48 647.424C1175.91 647.424 1172.86 646.205 1170.31 643.767C1167.8 641.258 1166.55 638.255 1166.55 634.757C1166.55 632.39 1167.18 630.199 1168.46 628.185C1169.73 626.136 1171.42 624.563 1173.54 623.468C1172.27 624.528 1171.28 625.888 1170.58 627.549C1169.87 629.174 1169.52 630.906 1169.52 632.743ZM1193.68 620.5H1216.15L1213.19 622.567H1205.02V647H1201.63V622.567H1190.71L1193.68 620.5ZM1233.5 619.917C1236.72 619.917 1239.35 621.083 1241.4 623.415C1243.48 625.782 1244.53 628.697 1244.53 632.16C1244.53 634.704 1243.82 637.142 1242.41 639.474C1240.99 641.806 1239.12 643.608 1236.79 644.88C1240 642.018 1241.61 638.396 1241.61 634.015C1241.61 630.764 1240.62 627.955 1238.64 625.588C1236.66 623.256 1234.05 622.09 1230.8 622.09C1228.36 622.09 1226.26 622.761 1224.49 624.104C1226.86 621.313 1229.86 619.917 1233.5 619.917ZM1224.49 620.5V644.88H1236.79L1233.82 646.947L1224.49 647V660.25H1221.1V620.5H1224.49ZM1255.18 642.177L1271.45 622.302L1274.85 619.97V647H1271.45V625.217L1255.18 645.092L1251.79 647.53V620.5H1255.18V642.177ZM1288.31 642.177L1304.58 622.302L1307.97 619.97V647H1304.58V625.217L1288.31 645.092L1284.92 647.53V620.5H1288.31V642.177ZM1320.21 620.394L1323.39 623.574L1319.68 625.906L1316.45 622.726L1320.21 620.394ZM1320.21 641.806L1323.39 644.986L1319.68 647.318L1316.45 644.138L1320.21 641.806ZM648.109 686.5H667.666V713H664.274V688.567H648.427V713H645.035V688.567L648.109 686.5ZM687.547 710.297L697.246 686.5H700.002L683.095 726.25H680.286L685.586 714.696L674.191 687.878L677.159 685.864L687.547 710.297ZM704.725 686.5H727.197L724.229 688.567H716.067V713H712.675V688.567H701.757L704.725 686.5ZM752.381 698.054L749.413 700.174L731.181 700.121C731.534 703.407 732.965 706.11 735.474 708.23C738.053 710.35 740.968 711.392 744.219 711.357C746.374 711.322 748.477 710.774 750.526 709.714C747.841 712.223 744.714 713.477 741.145 713.477C737.612 713.477 734.555 712.293 731.976 709.926C729.432 707.523 728.16 704.449 728.16 700.704C728.16 698.301 728.778 696.093 730.015 694.079C731.287 692.065 732.983 690.51 735.103 689.415C732.453 691.641 731.128 694.733 731.128 698.69C731.128 699.432 731.146 699.909 731.181 700.121L734.202 698.054H749.572C749.501 695.439 748.742 693.249 747.293 691.482C745.809 689.715 743.989 688.655 741.834 688.302C739.679 687.949 737.435 688.32 735.103 689.415C737.188 687.189 739.696 686.058 742.629 686.023C745.703 686.023 748.212 687.207 750.155 689.574C752.169 691.906 752.911 694.733 752.381 698.054ZM789.569 686.5H792.961V710.933L789.887 713H759.73V686.5H763.122V710.88H774.729V686.5H778.121V710.933H789.569V686.5ZM824.739 698.054L821.771 700.174L803.539 700.121C803.892 703.407 805.323 706.11 807.832 708.23C810.411 710.35 813.326 711.392 816.577 711.357C818.732 711.322 820.834 710.774 822.884 709.714C820.198 712.223 817.071 713.477 813.503 713.477C809.969 713.477 806.913 712.293 804.334 709.926C801.79 707.523 800.518 704.449 800.518 700.704C800.518 698.301 801.136 696.093 802.373 694.079C803.645 692.065 805.341 690.51 807.461 689.415C804.811 691.641 803.486 694.733 803.486 698.69C803.486 699.432 803.503 699.909 803.539 700.121L806.56 698.054H821.93C821.859 695.439 821.099 693.249 819.651 691.482C818.167 689.715 816.347 688.655 814.192 688.302C812.036 687.949 809.793 688.32 807.461 689.415C809.545 687.189 812.054 686.058 814.987 686.023C818.061 686.023 820.569 687.207 822.513 689.574C824.527 691.906 825.269 694.733 824.739 698.054ZM852.063 687.878L849.148 689.892C847.416 688.691 845.508 688.055 843.424 687.984C841.339 687.878 839.272 688.373 837.223 689.468C839.201 687.383 841.657 686.235 844.59 686.023C847.522 685.776 850.013 686.394 852.063 687.878ZM833.195 698.743C833.159 702.206 834.396 705.174 836.905 707.647C839.449 710.085 842.523 711.304 846.127 711.304C848.6 711.304 850.738 710.774 852.54 709.714C851.409 710.845 849.996 711.746 848.3 712.417C846.604 713.088 844.89 713.424 843.159 713.424C839.59 713.424 836.534 712.205 833.99 709.767C831.481 707.258 830.227 704.255 830.227 700.757C830.227 698.39 830.863 696.199 832.135 694.185C833.407 692.136 835.103 690.563 837.223 689.468C835.951 690.528 834.961 691.888 834.255 693.549C833.548 695.174 833.195 696.906 833.195 698.743ZM857.359 686.5H879.831L876.863 688.567H868.701V713H865.309V688.567H854.391L857.359 686.5ZM899.405 698.213C901.137 698.354 902.515 699.026 903.539 700.227C904.599 701.393 905.129 702.789 905.129 704.414C905.129 705.792 904.741 707.064 903.963 708.23C903.221 709.361 902.144 710.244 900.73 710.88C901.861 709.573 902.426 708.142 902.426 706.587C902.426 704.82 901.808 703.336 900.571 702.135C899.37 700.934 897.798 700.333 895.854 700.333L888.169 700.28L891.19 698.213H898.769H899.352C900.306 697.047 900.783 695.757 900.783 694.344C900.783 692.683 900.2 691.305 899.034 690.21C897.868 689.115 896.349 688.567 894.476 688.567H888.169V710.88H900.73L897.762 713L888.169 712.947V713H884.777V688.567L887.851 686.5H897.391C899.264 686.5 900.766 687.048 901.896 688.143C903.027 689.203 903.592 690.546 903.592 692.171C903.592 693.408 903.221 694.574 902.479 695.669C901.737 696.729 900.713 697.577 899.405 698.213ZM916.067 708.177L932.338 688.302L935.73 685.97V713H932.338V691.217L916.067 711.092L912.675 713.53V686.5H916.067V708.177ZM967.487 698.054L964.519 700.174L946.287 700.121C946.64 703.407 948.071 706.11 950.58 708.23C953.159 710.35 956.074 711.392 959.325 711.357C961.48 711.322 963.582 710.774 965.632 709.714C962.946 712.223 959.819 713.477 956.251 713.477C952.717 713.477 949.661 712.293 947.082 709.926C944.538 707.523 943.266 704.449 943.266 700.704C943.266 698.301 943.884 696.093 945.121 694.079C946.393 692.065 948.089 690.51 950.209 689.415C947.559 691.641 946.234 694.733 946.234 698.69C946.234 699.432 946.251 699.909 946.287 700.121L949.308 698.054H964.678C964.607 695.439 963.847 693.249 962.399 691.482C960.915 689.715 959.095 688.655 956.94 688.302C954.784 687.949 952.541 688.32 950.209 689.415C952.293 687.189 954.802 686.058 957.735 686.023C960.809 686.023 963.317 687.207 965.261 689.574C967.275 691.906 968.017 694.733 967.487 698.054ZM994.376 713H990.984V686.5H994.376V713ZM1010.65 697.524V686.5H1014.04V713H1010.65V699.591H994.429L997.397 697.524H1010.65ZM1041.82 695.669V713H1038.43V699.061L1038.37 699.114H1027.19L1030.16 697.047L1038.43 696.994C1038.28 694.203 1037.42 692.012 1035.83 690.422C1034.24 688.797 1032.24 687.984 1029.84 687.984C1027.51 687.984 1025.26 688.691 1023.11 690.104C1025.69 687.313 1028.74 685.917 1032.28 685.917C1034.93 685.917 1037.17 686.783 1039.01 688.514C1040.81 690.245 1041.75 692.63 1041.82 695.669ZM1024.33 704.255C1024.33 706.234 1025.03 707.877 1026.45 709.184C1027.86 710.491 1029.73 711.145 1032.07 711.145C1034.26 711.145 1036.38 710.332 1038.43 708.707C1037.29 710.156 1035.92 711.269 1034.29 712.046C1032.67 712.823 1031.01 713.212 1029.31 713.212C1027.05 713.212 1025.16 712.541 1023.64 711.198C1022.19 709.82 1021.47 708.195 1021.47 706.322C1021.47 704.803 1021.98 703.389 1023 702.082C1024.03 700.739 1025.42 699.75 1027.19 699.114C1025.28 700.386 1024.33 702.1 1024.33 704.255ZM1056.36 686.5H1072V713H1068.6V688.567H1056.47C1056.82 695.174 1055.97 700.421 1053.92 704.308C1054.98 700.139 1054.77 694.892 1053.29 688.567L1054.35 687.878L1056.36 686.5ZM1049.68 713.265L1047.93 709.449C1050.48 708.142 1052.47 706.428 1053.92 704.308C1053.22 708.195 1051.8 711.18 1049.68 713.265ZM1103.76 698.054L1100.8 700.174L1082.56 700.121C1082.92 703.407 1084.35 706.11 1086.86 708.23C1089.44 710.35 1092.35 711.392 1095.6 711.357C1097.76 711.322 1099.86 710.774 1101.91 709.714C1099.22 712.223 1096.1 713.477 1092.53 713.477C1089 713.477 1085.94 712.293 1083.36 709.926C1080.82 707.523 1079.54 704.449 1079.54 700.704C1079.54 698.301 1080.16 696.093 1081.4 694.079C1082.67 692.065 1084.37 690.51 1086.49 689.415C1083.84 691.641 1082.51 694.733 1082.51 698.69C1082.51 699.432 1082.53 699.909 1082.56 700.121L1085.59 698.054H1100.96C1100.89 695.439 1100.13 693.249 1098.68 691.482C1097.19 689.715 1095.37 688.655 1093.22 688.302C1091.06 687.949 1088.82 688.32 1086.49 689.415C1088.57 687.189 1091.08 686.058 1094.01 686.023C1097.09 686.023 1099.6 687.207 1101.54 689.574C1103.55 691.906 1104.29 694.733 1103.76 698.054ZM1114.14 686.5H1128.34L1125.37 688.567H1114.51V713H1111.11V688.567L1114.14 686.5ZM1137.02 713.053H1133.63V686.5H1137.02V713.053ZM1154.62 686.5L1142 698.213L1155.15 711.622L1152.23 713.689L1138.08 699.273L1151.38 686.5H1154.62ZM1183.06 698.054L1180.09 700.174L1161.86 700.121C1162.21 703.407 1163.64 706.11 1166.15 708.23C1168.73 710.35 1171.65 711.392 1174.9 711.357C1177.05 711.322 1179.15 710.774 1181.2 709.714C1178.52 712.223 1175.39 713.477 1171.82 713.477C1168.29 713.477 1165.23 712.293 1162.65 709.926C1160.11 707.523 1158.84 704.449 1158.84 700.704C1158.84 698.301 1159.46 696.093 1160.69 694.079C1161.96 692.065 1163.66 690.51 1165.78 689.415C1163.13 691.641 1161.8 694.733 1161.8 698.69C1161.8 699.432 1161.82 699.909 1161.86 700.121L1164.88 698.054H1180.25C1180.18 695.439 1179.42 693.249 1177.97 691.482C1176.49 689.715 1174.67 688.655 1172.51 688.302C1170.36 687.949 1168.11 688.32 1165.78 689.415C1167.86 687.189 1170.37 686.058 1173.31 686.023C1176.38 686.023 1178.89 687.207 1180.83 689.574C1182.85 691.906 1183.59 694.733 1183.06 698.054ZM648.427 774.177L664.698 754.302L668.09 751.97V779H664.698V757.217L648.427 777.092L645.035 779.53V752.5H648.427V774.177ZM720.132 751.97L724.637 777.516L721.457 779.53L717.588 757.588L709.479 776.986H709.373L706.352 778.894L697.713 757.482L694.374 779H691.936L696.282 753.931L699.409 751.97L708.419 774.336L716.952 753.984L720.132 751.97ZM736.001 779H732.609V752.5H736.001V779ZM752.272 763.524V752.5H755.664V779H752.272V765.591H736.054L739.022 763.524H752.272ZM778.729 751.97C782.192 751.97 785.142 753.207 787.58 755.68C790.018 758.153 791.237 761.139 791.237 764.637C791.237 767.004 790.601 769.213 789.329 771.262C788.092 773.276 786.449 774.813 784.4 775.873C787.015 773.435 788.322 770.396 788.322 766.757C788.322 763.259 787.103 760.273 784.665 757.8C782.227 755.291 779.259 754.037 775.761 754.037C773.782 754.037 771.874 754.514 770.037 755.468C772.44 753.136 775.337 751.97 778.729 751.97ZM766.115 764.637C766.115 768.135 767.334 771.121 769.772 773.594C772.21 776.067 775.178 777.304 778.676 777.304C780.619 777.304 782.527 776.827 784.4 775.873C781.997 778.24 779.1 779.424 775.708 779.424C772.245 779.424 769.295 778.187 766.857 775.714C764.419 773.241 763.2 770.255 763.2 766.757C763.2 764.319 763.818 762.093 765.055 760.079C766.292 758.065 767.952 756.528 770.037 755.468C767.422 757.906 766.115 760.962 766.115 764.637ZM801.518 752.5H815.722L812.754 754.567H801.889V779H798.497V754.567L801.518 752.5ZM832.557 751.97C836.02 751.97 838.97 753.207 841.408 755.68C843.846 758.153 845.065 761.139 845.065 764.637C845.065 767.004 844.429 769.213 843.157 771.262C841.921 773.276 840.278 774.813 838.228 775.873C840.843 773.435 842.15 770.396 842.15 766.757C842.15 763.259 840.931 760.273 838.493 757.8C836.055 755.291 833.087 754.037 829.589 754.037C827.611 754.037 825.703 754.514 823.865 755.468C826.268 753.136 829.165 751.97 832.557 751.97ZM819.943 764.637C819.943 768.135 821.162 771.121 823.6 773.594C826.038 776.067 829.006 777.304 832.504 777.304C834.448 777.304 836.356 776.827 838.228 775.873C835.826 778.24 832.928 779.424 829.536 779.424C826.074 779.424 823.123 778.187 820.685 775.714C818.247 773.241 817.028 770.255 817.028 766.757C817.028 764.319 817.647 762.093 818.883 760.079C820.12 758.065 821.781 756.528 823.865 755.468C821.251 757.906 819.943 760.962 819.943 764.637ZM872.021 779.053H868.629V752.5H872.021V779.053ZM889.617 752.5L877.003 764.213L890.147 777.622L887.232 779.689L873.081 765.273L886.384 752.5H889.617ZM909.032 751.917C912.247 751.917 914.879 753.083 916.929 755.415C919.013 757.782 920.056 760.697 920.056 764.16C920.056 766.704 919.349 769.142 917.936 771.474C916.522 773.806 914.65 775.608 912.318 776.88C915.533 774.018 917.141 770.396 917.141 766.015C917.141 762.764 916.151 759.955 914.173 757.588C912.194 755.256 909.579 754.09 906.329 754.09C903.891 754.09 901.788 754.761 900.022 756.104C902.389 753.313 905.392 751.917 909.032 751.917ZM900.022 752.5V776.88H912.318L909.35 778.947L900.022 779V792.25H896.63V752.5H900.022ZM945.962 761.669V779H942.57V765.061L942.517 765.114H931.334L934.302 763.047L942.57 762.994C942.429 760.203 941.563 758.012 939.973 756.422C938.383 754.797 936.387 753.984 933.984 753.984C931.652 753.984 929.408 754.691 927.253 756.104C929.832 753.313 932.889 751.917 936.422 751.917C939.072 751.917 941.316 752.783 943.153 754.514C944.955 756.245 945.891 758.63 945.962 761.669ZM928.472 770.255C928.472 772.234 929.179 773.877 930.592 775.184C932.005 776.491 933.878 777.145 936.21 777.145C938.401 777.145 940.521 776.332 942.57 774.707C941.439 776.156 940.061 777.269 938.436 778.046C936.811 778.823 935.15 779.212 933.454 779.212C931.193 779.212 929.302 778.541 927.783 777.198C926.334 775.82 925.61 774.195 925.61 772.322C925.61 770.803 926.122 769.389 927.147 768.082C928.172 766.739 929.567 765.75 931.334 765.114C929.426 766.386 928.472 768.1 928.472 770.255ZM975.091 753.878L972.176 755.892C970.445 754.691 968.537 754.055 966.452 753.984C964.367 753.878 962.3 754.373 960.251 755.468C962.23 753.383 964.685 752.235 967.618 752.023C970.551 751.776 973.042 752.394 975.091 753.878ZM956.223 764.743C956.188 768.206 957.424 771.174 959.933 773.647C962.477 776.085 965.551 777.304 969.155 777.304C971.628 777.304 973.766 776.774 975.568 775.714C974.437 776.845 973.024 777.746 971.328 778.417C969.632 779.088 967.918 779.424 966.187 779.424C962.618 779.424 959.562 778.205 957.018 775.767C954.509 773.258 953.255 770.255 953.255 766.757C953.255 764.39 953.891 762.199 955.163 760.185C956.435 758.136 958.131 756.563 960.251 755.468C958.979 756.528 957.99 757.888 957.283 759.549C956.576 761.174 956.223 762.906 956.223 764.743ZM995.025 751.97C998.488 751.97 1001.44 753.207 1003.88 755.68C1006.31 758.153 1007.53 761.139 1007.53 764.637C1007.53 767.004 1006.9 769.213 1005.63 771.262C1004.39 773.276 1002.75 774.813 1000.7 775.873C1003.31 773.435 1004.62 770.396 1004.62 766.757C1004.62 763.259 1003.4 760.273 1000.96 757.8C998.523 755.291 995.555 754.037 992.057 754.037C990.078 754.037 988.17 754.514 986.333 755.468C988.736 753.136 991.633 751.97 995.025 751.97ZM982.411 764.637C982.411 768.135 983.63 771.121 986.068 773.594C988.506 776.067 991.474 777.304 994.972 777.304C996.915 777.304 998.823 776.827 1000.7 775.873C998.293 778.24 995.396 779.424 992.004 779.424C988.541 779.424 985.591 778.187 983.153 775.714C980.715 773.241 979.496 770.255 979.496 766.757C979.496 764.319 980.114 762.093 981.351 760.079C982.588 758.065 984.248 756.528 986.333 755.468C983.718 757.906 982.411 760.962 982.411 764.637ZM1012.48 752.5H1034.95L1031.98 754.567H1023.82V779H1020.43V754.567H1009.51L1012.48 752.5ZM1043.29 752.5V776.88H1055.32L1052.35 779L1043.29 778.947V779H1039.9V752.5H1043.29ZM1063.06 779V752.5H1066.45V779H1063.06ZM1046.31 762.994H1052.72C1054.59 762.994 1056.17 763.559 1057.44 764.69C1058.71 765.821 1059.45 767.181 1059.66 768.771C1059.88 770.361 1059.59 771.933 1058.82 773.488C1058.04 775.043 1056.87 776.173 1055.32 776.88C1056.2 775.785 1056.73 774.548 1056.91 773.17C1057.09 771.792 1056.93 770.52 1056.43 769.354C1055.97 768.153 1055.14 767.146 1053.94 766.333C1052.77 765.52 1051.4 765.114 1049.81 765.114L1043.29 765.061L1046.31 762.994Z" fill="black"/>
<path d="M62.872 35.4V46.292C62.8347 48.7187 63.4413 50.632 64.692 52.032C65.9427 53.4507 67.5293 54.16 69.452 54.16C71.2067 54.16 72.9613 53.5533 74.716 52.34C72.7187 54.356 70.488 55.364 68.024 55.364C66.064 55.364 64.4027 54.636 63.04 53.18C61.6587 51.724 60.9587 49.7827 60.94 47.356V35.4H62.872ZM74.716 52.34V35.4H76.648V51.108L74.716 52.34ZM97.2136 51.836V35.4H98.3896V55H97.2136L83.8856 38.564V55H82.6816V37.08L81.9256 36.156L83.5496 34.98L97.2136 51.836ZM105.988 35.4H110.244C113.193 35.4 115.601 36.3053 117.468 38.116C119.353 39.9453 120.296 42.232 120.296 44.976C120.296 46.04 120.109 47.0947 119.736 48.14C119.363 49.1667 118.868 50.0627 118.252 50.828C117.225 52.1533 116.227 53.152 115.256 53.824C116.04 53.152 116.805 52.1347 117.552 50.772C118.28 49.428 118.663 47.8507 118.7 46.04C118.7 43.3893 117.757 41.1493 115.872 39.32C113.987 37.4907 111.551 36.576 108.564 36.576H106.212V53.824H115.256L113.548 55H104.28V36.576L105.988 35.4ZM126.61 45.088V53.824H136.158L134.45 55H124.678V36.576L126.386 35.4H136.018L134.31 36.576H126.61V43.912H135.038L133.33 45.088H126.61ZM142.136 35.4H147.092C148.194 35.4 149.164 35.6427 150.004 36.128C150.844 36.6133 151.432 37.248 151.768 38.032C152.123 38.816 152.3 39.6467 152.3 40.524C152.3 41.3827 152.02 42.2413 151.46 43.1C150.9 43.94 150.126 44.6307 149.136 45.172C149.92 44.276 150.396 43.3147 150.564 42.288C150.751 41.2613 150.667 40.3373 150.312 39.516C149.976 38.676 149.37 37.976 148.492 37.416C147.634 36.856 146.607 36.576 145.412 36.576H142.36V55H140.428V36.576L142.136 35.4ZM144.096 45.172H149.136L154.932 54.132L153.252 55.336L147.456 46.348H142.388L144.096 45.172Z" fill="black"/>
</g>
<defs>
<radialGradient id="paint0_radial" cx="0" cy="0" r="1" gradientUnits="userSpaceOnUse" gradientTransform="translate(261 450.5) rotate(90) scale(129.5 130)">
<stop stop-color="#3054D6"/>
<stop offset="1" stop-color="white" stop-opacity="0"/>
</radialGradient>
<radialGradient id="paint1_radial" cx="0" cy="0" r="1" gradientUnits="userSpaceOnUse" gradientTransform="translate(1197 194.5) rotate(90) scale(129.5 130)">
<stop stop-color="#3054D6"/>
<stop offset="1" stop-color="white" stop-opacity="0"/>
</radialGradient>
<radialGradient id="paint2_radial" cx="0" cy="0" r="1" gradientUnits="userSpaceOnUse" gradientTransform="translate(131 271.5) rotate(90) scale(178.5 179)">
<stop stop-color="#37ACCE"/>
<stop offset="1" stop-color="white" stop-opacity="0"/>
</radialGradient>
<radialGradient id="paint3_radial" cx="0" cy="0" r="1" gradientUnits="userSpaceOnUse" gradientTransform="translate(225 402.5) rotate(90) scale(178.5 179)">
<stop stop-color="#06A4D2"/>
<stop offset="1" stop-color="white" stop-opacity="0"/>
</radialGradient>
<radialGradient id="paint4_radial" cx="0" cy="0" r="1" gradientUnits="userSpaceOnUse" gradientTransform="translate(489 466.5) rotate(90) scale(178.5 179)">
<stop stop-color="#06A4D2"/>
<stop offset="1" stop-color="white" stop-opacity="0"/>
</radialGradient>
<radialGradient id="paint5_radial" cx="0" cy="0" r="1" gradientUnits="userSpaceOnUse" gradientTransform="translate(837 551.5) rotate(90) scale(97.5 98)">
<stop stop-color="#2B4089"/>
<stop offset="1" stop-color="white" stop-opacity="0"/>
</radialGradient>
<radialGradient id="paint6_radial" cx="0" cy="0" r="1" gradientUnits="userSpaceOnUse" gradientTransform="translate(521 418.5) rotate(90) scale(129.5 130)">
<stop stop-color="#2B4089"/>
<stop offset="1" stop-color="white" stop-opacity="0"/>
</radialGradient>
<radialGradient id="paint7_radial" cx="0" cy="0" r="1" gradientUnits="userSpaceOnUse" gradientTransform="translate(541 580.5) rotate(90) scale(178.5 179)">
<stop stop-color="#6EDEFF"/>
<stop offset="1" stop-color="white" stop-opacity="0"/>
</radialGradient>
<radialGradient id="paint8_radial" cx="0" cy="0" r="1" gradientUnits="userSpaceOnUse" gradientTransform="translate(668 580.5) rotate(90) scale(178.5 179)">
<stop stop-color="#06A4D2"/>
<stop offset="1" stop-color="white" stop-opacity="0"/>
</radialGradient>
<radialGradient id="paint9_radial" cx="0" cy="0" r="1" gradientUnits="userSpaceOnUse" gradientTransform="translate(732 470.5) rotate(90) scale(178.5 179)">
<stop stop-color="#06A4D2"/>
<stop offset="1" stop-color="white" stop-opacity="0"/>
</radialGradient>
<radialGradient id="paint10_radial" cx="0" cy="0" r="1" gradientUnits="userSpaceOnUse" gradientTransform="translate(783 421.5) rotate(90) scale(97.5 98)">
<stop stop-color="#00229B"/>
<stop offset="1" stop-color="white" stop-opacity="0"/>
</radialGradient>
<radialGradient id="paint11_radial" cx="0" cy="0" r="1" gradientUnits="userSpaceOnUse" gradientTransform="translate(881 466.5) rotate(90) scale(178.5 179)">
<stop stop-color="#06A4D2"/>
<stop offset="1" stop-color="white" stop-opacity="0"/>
</radialGradient>
<radialGradient id="paint12_radial" cx="0" cy="0" r="1" gradientUnits="userSpaceOnUse" gradientTransform="translate(920 401.5) rotate(90) scale(178.5 179)">
<stop stop-color="#06A4D2"/>
<stop offset="1" stop-color="white" stop-opacity="0"/>
</radialGradient>
<radialGradient id="paint13_radial" cx="0" cy="0" r="1" gradientUnits="userSpaceOnUse" gradientTransform="translate(1032 401.5) rotate(90) scale(178.5 179)">
<stop stop-color="#06A4D2"/>
<stop offset="1" stop-color="white" stop-opacity="0"/>
</radialGradient>
<radialGradient id="paint14_radial" cx="0" cy="0" r="1" gradientUnits="userSpaceOnUse" gradientTransform="translate(1113 401.5) rotate(90) scale(97.5 98)">
<stop stop-color="#00229B"/>
<stop offset="1" stop-color="white" stop-opacity="0"/>
</radialGradient>
<radialGradient id="paint15_radial" cx="0" cy="0" r="1" gradientUnits="userSpaceOnUse" gradientTransform="translate(1133 292.5) rotate(90) scale(178.5 179)">
<stop stop-color="#06A4D2"/>
<stop offset="1" stop-color="white" stop-opacity="0"/>
</radialGradient>
<radialGradient id="paint16_radial" cx="0" cy="0" r="1" gradientUnits="userSpaceOnUse" gradientTransform="translate(1239 292.5) rotate(90) scale(178.5 179)">
<stop stop-color="#06A4D2"/>
<stop offset="1" stop-color="white" stop-opacity="0"/>
</radialGradient>
<radialGradient id="paint17_radial" cx="0" cy="0" r="1" gradientUnits="userSpaceOnUse" gradientTransform="translate(380 369.5) rotate(90) scale(178.5 179)">
<stop stop-color="#A1E4F8"/>
<stop offset="1" stop-color="white" stop-opacity="0"/>
</radialGradient>
<radialGradient id="paint18_radial" cx="0" cy="0" r="1" gradientUnits="userSpaceOnUse" gradientTransform="translate(1324 242.5) rotate(90) scale(178.5 179)">
<stop stop-color="#06A4D2"/>
<stop offset="1" stop-color="white" stop-opacity="0"/>
</radialGradient>
<clipPath id="clip0">
<rect width="1440" height="900" fill="white"/>
</clipPath>
</defs>
</svg>
